<?xml version="1.0" encoding="UTF-8" standalone="no"?>
<!-- Created with Inkscape (http://www.inkscape.org/) -->

<svg
   width="252mm"
   height="110mm"
   viewBox="0 0 252 110"
   version="1.1"
   id="svg20325"
   xmlns="http://www.w3.org/2000/svg"
   xmlns:svg="http://www.w3.org/2000/svg">
  <defs
     id="defs20322">
    <marker
       style="overflow:visible"
       id="Arrow2Mstart"
       refX="0.0"
       refY="0.0"
       orient="auto">
      <path
         transform="scale(0.6) translate(0,0)"
         d="M 8.7185878,4.0337352 L -2.2072895,0.016013256 L 8.7185884,-4.0017078 C 6.9730900,-1.6296469 6.9831476,1.6157441 8.7185878,4.0337352 z "
         style="stroke:context-stroke;fill-rule:evenodd;fill:context-stroke;stroke-width:0.62500000;stroke-linejoin:round"
         id="path29663" />
    </marker>
    <marker
       style="overflow:visible"
       id="Arrow2Lstart"
       refX="0.0"
       refY="0.0"
       orient="auto">
      <path
         transform="scale(1.1) translate(1,0)"
         d="M 8.7185878,4.0337352 L -2.2072895,0.016013256 L 8.7185884,-4.0017078 C 6.9730900,-1.6296469 6.9831476,1.6157441 8.7185878,4.0337352 z "
         style="stroke:context-stroke;fill-rule:evenodd;fill:context-stroke;stroke-width:0.62500000;stroke-linejoin:round"
         id="path29657" />
    </marker>
    <marker
       style="overflow:visible;"
       id="Arrow2Mend"
       refX="0.0"
       refY="0.0"
       orient="auto">
      <path
         transform="scale(0.6) rotate(180) translate(0,0)"
         d="M 8.7185878,4.0337352 L -2.2072895,0.016013256 L 8.7185884,-4.0017078 C 6.9730900,-1.6296469 6.9831476,1.6157441 8.7185878,4.0337352 z "
         style="stroke:context-stroke;fill-rule:evenodd;fill:context-stroke;stroke-width:0.62500000;stroke-linejoin:round;"
         id="path29666" />
    </marker>
    <marker
       style="overflow:visible"
       id="Arrow1Mstart"
       refX="0.0"
       refY="0.0"
       orient="auto">
      <path
         transform="scale(0.4) translate(10,0)"
         style="fill-rule:evenodd;fill:context-stroke;stroke:context-stroke;stroke-width:1.0pt"
         d="M 0.0,0.0 L 5.0,-5.0 L -12.5,0.0 L 5.0,5.0 L 0.0,0.0 z "
         id="path29645" />
    </marker>
    <marker
       style="overflow:visible"
       id="Arrow1Lstart"
       refX="0.0"
       refY="0.0"
       orient="auto">
      <path
         transform="scale(0.8) translate(12.5,0)"
         style="fill-rule:evenodd;fill:context-stroke;stroke:context-stroke;stroke-width:1.0pt"
         d="M 0.0,0.0 L 5.0,-5.0 L -12.5,0.0 L 5.0,5.0 L 0.0,0.0 z "
         id="path29639" />
    </marker>
    <style
       type="text/css"
       id="style150557"><![CDATA[
     @import url(https://fonts.googleapis.com/css?family=Urbanist:400,800,400italic);
     @import url(https://fonts.googleapis.com/css?family=Shadows+Into+Light:400);
    ]]></style>
    <clipPath
       id="clip0_60_430">
      <rect
         width="379"
         height="89"
         fill="white"
         id="rect82977" />
    </clipPath>
    <mask
       id="mask0_60_430"
       maskUnits="userSpaceOnUse"
       x="200"
       y="26"
       width="178"
       height="53">
      <path
         d="M 377.737,26.9299 H 200.97 v 51.9167 h 176.767 z"
         fill="#ffffff"
         id="path82816" />
      <path
         d="m 254.706,77.3634 c -3.564,0 -6.607,-0.794 -9.129,-2.3823 -2.523,-1.5882 -4.46,-3.7854 -5.81,-6.5919 -1.349,-2.8065 -2.024,-6.0263 -2.024,-9.6595 0,-3.6984 0.686,-6.94 2.059,-9.7247 1.37,-2.7847 3.318,-4.9494 5.84,-6.494 2.546,-1.5664 5.567,-2.3496 9.064,-2.3496 3.584,0 6.637,0.794 9.16,2.3822 2.545,1.5664 4.482,3.7528 5.809,6.5593 1.35,2.7847 2.026,5.9937 2.026,9.6268 0,3.6984 -0.676,6.9509 -2.026,9.7574 -1.349,2.7847 -3.297,4.9603 -5.842,6.5267 -2.545,1.5664 -5.588,2.3496 -9.127,2.3496 z m 0,-4.6013 c 3.983,0 6.947,-1.2945 8.895,-3.8834 1.947,-2.6107 2.921,-5.9937 2.921,-10.149 0,-4.2641 -0.984,-7.658 -2.954,-10.1816 -1.948,-2.5235 -4.902,-3.7854 -8.862,-3.7854 -2.679,0 -4.892,0.5982 -6.64,1.7948 -1.725,1.1748 -3.02,2.8173 -3.884,4.9276 -0.84,2.0886 -1.261,4.5034 -1.261,7.2446 0,4.2424 0.996,7.6471 2.988,10.2143 1.991,2.5454 4.923,3.8181 8.797,3.8181 z"
         fill="#000000"
         id="path82818" />
      <path
         d="m 278.957,76.3843 c -0.33,0 -0.599,-0.2656 -0.599,-0.5933 V 29.0067 c 0,-0.3277 0.269,-0.5934 0.599,-0.5934 h 3.682 c 0.331,0 0.599,0.2657 0.599,0.5934 V 75.791 c 0,0.3277 -0.268,0.5933 -0.599,0.5933 z"
         fill="#000000"
         id="path82820" />
      <path
         d="m 302.118,77.3634 c -2.699,0 -4.967,-0.4787 -6.804,-1.4359 -1.814,-0.9572 -3.176,-2.2299 -4.084,-3.8181 -0.906,-1.5882 -1.36,-3.3178 -1.36,-5.1887 0,-1.9145 0.387,-3.5462 1.161,-4.895 0.797,-1.3706 1.871,-2.491 3.221,-3.3612 1.372,-0.8703 2.954,-1.5338 4.746,-1.9907 1.815,-0.435 3.818,-0.8158 6.008,-1.1421 2.213,-0.3482 4.371,-0.6419 6.473,-0.8811 1.504,-0.1848 2.875,-0.3643 4.114,-0.5382 0.322,-0.0454 0.478,0.3832 0.2,0.5512 -0.2,0.1215 -0.458,-0.0252 -0.459,-0.2582 -0.012,-3.2092 -0.7,-5.6076 -2.063,-7.1952 -1.438,-1.6752 -3.939,-2.5128 -7.501,-2.5128 -2.457,0 -4.537,0.5439 -6.241,1.6317 -1.543,0.9981 -2.668,2.5276 -3.372,4.5882 -0.106,0.3109 -0.437,0.4932 -0.756,0.4014 l -3.613,-1.0434 c -0.311,-0.0896 -0.495,-0.4076 -0.403,-0.7146 0.862,-2.8885 2.461,-5.1515 4.792,-6.7887 2.478,-1.7404 5.698,-2.6106 9.659,-2.6106 3.275,0 6.052,0.6092 8.332,1.8274 2.301,1.1966 3.928,2.937 4.879,5.2214 0.442,1.0224 0.73,2.1646 0.863,3.4265 0.133,1.2618 0.199,2.5454 0.199,3.8507 V 75.791 c 0,0.3277 -0.268,0.5934 -0.599,0.5934 h -3.15 c -0.331,0 -0.6,-0.2657 -0.6,-0.5934 v -7.4322 c 0,-0.3889 0.4,-0.6525 0.763,-0.5026 0.277,0.1147 0.41,0.4287 0.292,0.7014 -1.221,2.782 -3.044,4.9232 -5.469,6.4235 -2.566,1.5883 -5.643,2.3823 -9.228,2.3823 z m 0.565,-4.1445 c 2.278,0 4.271,-0.4024 5.974,-1.2074 1.705,-0.805 3.077,-1.9036 4.116,-3.296 1.04,-1.414 1.716,-3.0022 2.026,-4.7644 0.265,-1.1314 0.409,-2.3714 0.431,-3.7202 0.015,-0.9593 0.026,-1.748 0.03,-2.3662 0.003,-0.3204 0.345,-0.5271 0.634,-0.3807 0.376,0.192 0.278,0.7485 -0.143,0.8012 -1.27,0.1592 -2.617,0.3182 -4.04,0.4772 -1.925,0.2176 -3.829,0.4677 -5.709,0.7505 -1.859,0.2829 -3.541,0.6201 -5.045,1.0117 -1.019,0.2828 -2.003,0.6853 -2.954,1.2074 -0.953,0.5003 -1.738,1.1748 -2.358,2.0233 -0.596,0.8484 -0.896,1.9035 -0.896,3.1654 0,1.0225 0.255,2.0125 0.764,2.9696 0.53,0.9572 1.372,1.7514 2.523,2.3823 1.173,0.6308 2.722,0.9463 4.647,0.9463 z"
         fill="#000000"
         id="path82822" />
      <path
         d="m 328.022,76.3843 c -0.331,0 -0.599,-0.2656 -0.599,-0.5933 V 41.7337 c 0,-0.3277 0.268,-0.5934 0.599,-0.5934 h 3.183 c 0.331,0 0.599,0.2657 0.599,0.5934 v 6.7143 c 0,0.3825 -0.49,0.5476 -0.725,0.2446 -0.085,-0.1101 -0.108,-0.2565 -0.057,-0.3855 0.388,-0.9636 0.881,-1.8514 1.479,-2.6634 0.643,-0.8919 1.339,-1.6208 2.091,-2.1864 0.93,-0.805 2.015,-1.4141 3.254,-1.8275 1.239,-0.435 2.49,-0.6853 3.751,-0.7505 1.08,-0.0745 2.079,-0.0214 2.997,0.1594 0.269,0.053 0.454,0.2918 0.454,0.5634 v 3.28 c 0,0.3865 -0.367,0.6695 -0.752,0.6037 -1.096,-0.1883 -2.272,-0.2117 -3.529,-0.0705 -1.549,0.174 -2.977,0.7832 -4.283,1.8275 -1.194,0.9137 -2.091,2.0124 -2.687,3.2959 -0.598,1.2619 -0.996,2.6107 -1.196,4.0466 -0.199,1.414 -0.299,2.8173 -0.299,4.2097 v 16.996 c 0,0.3277 -0.268,0.5933 -0.6,0.5933 z"
         fill="#000000"
         id="path82824" />
      <path
         d="m 362.099,77.3307 c -4.205,0 -7.669,-0.8919 -10.39,-2.6759 -2.529,-1.6708 -4.145,-3.9525 -4.85,-6.8447 -0.077,-0.3247 0.146,-0.6406 0.478,-0.6952 l 3.832,-0.6281 c 0.306,-0.05 0.598,0.1393 0.695,0.4299 0.592,1.7612 1.747,3.1875 3.462,4.279 1.904,1.1748 4.25,1.7622 7.038,1.7622 2.722,0 4.869,-0.5548 6.44,-1.6643 1.57,-1.1314 2.356,-2.6651 2.356,-4.6013 0,-1.0878 -0.254,-1.9689 -0.764,-2.6433 -0.486,-0.6962 -1.493,-1.338 -3.02,-1.9254 -1.528,-0.5874 -3.806,-1.2835 -6.838,-2.0885 -3.252,-0.8703 -5.797,-1.7404 -7.634,-2.6107 -1.837,-0.8703 -3.143,-1.8709 -3.917,-3.0023 -0.775,-1.153 -1.161,-2.5562 -1.161,-4.2097 0,-2.0014 0.575,-3.7528 1.725,-5.2539 1.151,-1.523 2.743,-2.6978 4.781,-3.5244 2.035,-0.8485 4.402,-1.2727 7.102,-1.2727 2.701,0 5.112,0.435 7.237,1.3053 2.146,0.8485 3.872,2.0451 5.178,3.5897 1.187,1.4037 1.934,3.0141 2.243,4.831 0.054,0.3098 -0.163,0.5966 -0.475,0.6518 l -3.823,0.6764 c -0.33,0.0585 -0.641,-0.1637 -0.719,-0.487 -0.425,-1.7881 -1.438,-3.2221 -3.035,-4.3016 -1.748,-1.2183 -3.973,-1.8493 -6.672,-1.8928 -2.545,-0.0652 -4.614,0.4134 -6.208,1.4359 -1.592,1.0008 -2.389,2.3388 -2.389,4.0139 0,0.9355 0.287,1.7404 0.862,2.4149 0.576,0.6526 1.617,1.2727 3.121,1.8601 1.526,0.5874 3.695,1.2292 6.506,1.9253 3.297,0.8267 5.887,1.697 7.767,2.6107 1.882,0.9137 3.219,1.9906 4.016,3.2307 0.797,1.2401 1.196,2.7738 1.196,4.6013 0,3.3286 -1.262,5.9501 -3.784,7.8646 -2.501,1.8928 -5.953,2.8391 -10.356,2.8391 z"
         fill="#000000"
         id="path82826" />
      <path
         d="m 202.979,76.3846 c -0.282,0 -0.511,-0.2247 -0.511,-0.502 V 29.8947 c 0,-0.2772 0.229,-0.5021 0.511,-0.5021 h 17.945 c 0.464,0 0.984,0.0218 1.559,0.0652 0.598,0.0219 1.195,0.0871 1.793,0.1958 2.5,0.37 4.614,1.2293 6.34,2.5781 1.748,1.3271 3.065,3.0022 3.95,5.0255 0.908,2.0233 1.362,4.2641 1.362,6.7225 0,2.4367 -0.454,4.6665 -1.362,6.6898 -0.908,2.0233 -2.235,3.7094 -3.983,5.0582 -1.726,1.3271 -3.829,2.1756 -6.307,2.5454 -0.598,0.0871 -1.195,0.1523 -1.793,0.1958 -0.575,0.0436 -1.095,0.0652 -1.559,0.0652 h -13.066 c -0.282,0 -0.511,0.2249 -0.511,0.5022 v 16.8463 c 0,0.2773 -0.228,0.502 -0.511,0.502 z m 4.368,-22.9211 c 0,0.2773 0.229,0.502 0.511,0.502 h 12.932 c 0.399,0 0.863,-0.0217 1.395,-0.0653 0.532,-0.0434 1.052,-0.1195 1.559,-0.2284 1.639,-0.348 2.977,-1.0117 4.018,-1.9907 1.062,-0.979 1.847,-2.1428 2.356,-3.4917 0.531,-1.3488 0.797,-2.752 0.797,-4.2097 0,-1.4575 -0.266,-2.8608 -0.797,-4.2097 -0.509,-1.3706 -1.294,-2.5454 -2.356,-3.5244 -1.041,-0.979 -2.379,-1.6425 -4.018,-1.9907 -0.507,-0.1087 -1.027,-0.1739 -1.559,-0.1958 -0.532,-0.0434 -0.996,-0.0652 -1.395,-0.0652 h -12.932 c -0.282,0 -0.511,0.2249 -0.511,0.5021 z"
         fill="#000000"
         id="path82828" />
    </mask>
    <mask
       id="mask1_60_430"
       maskUnits="userSpaceOnUse"
       x="200"
       y="26"
       width="178"
       height="53">
      <path
         d="M 377.737,26.9299 H 200.97 v 51.9167 h 176.767 z"
         fill="#ffffff"
         id="path82837" />
      <path
         d="m 254.706,77.3634 c -3.564,0 -6.607,-0.794 -9.129,-2.3823 -2.523,-1.5882 -4.46,-3.7854 -5.81,-6.5919 -1.349,-2.8065 -2.024,-6.0263 -2.024,-9.6595 0,-3.6984 0.686,-6.94 2.059,-9.7247 1.37,-2.7847 3.318,-4.9494 5.84,-6.494 2.546,-1.5664 5.567,-2.3496 9.064,-2.3496 3.584,0 6.637,0.794 9.16,2.3822 2.545,1.5664 4.482,3.7528 5.809,6.5593 1.35,2.7847 2.026,5.9937 2.026,9.6268 0,3.6984 -0.676,6.9509 -2.026,9.7574 -1.349,2.7847 -3.297,4.9603 -5.842,6.5267 -2.545,1.5664 -5.588,2.3496 -9.127,2.3496 z m 0,-4.6013 c 3.983,0 6.947,-1.2945 8.895,-3.8834 1.947,-2.6107 2.921,-5.9937 2.921,-10.149 0,-4.2641 -0.984,-7.658 -2.954,-10.1816 -1.948,-2.5235 -4.902,-3.7854 -8.862,-3.7854 -2.679,0 -4.892,0.5982 -6.64,1.7948 -1.725,1.1748 -3.02,2.8173 -3.884,4.9276 -0.84,2.0886 -1.261,4.5034 -1.261,7.2446 0,4.2424 0.996,7.6471 2.988,10.2143 1.991,2.5454 4.923,3.8181 8.797,3.8181 z"
         fill="#000000"
         id="path82839" />
      <path
         d="m 278.957,76.3843 c -0.33,0 -0.599,-0.2656 -0.599,-0.5933 V 29.0067 c 0,-0.3277 0.269,-0.5934 0.599,-0.5934 h 3.682 c 0.331,0 0.599,0.2657 0.599,0.5934 V 75.791 c 0,0.3277 -0.268,0.5933 -0.599,0.5933 z"
         fill="#000000"
         id="path82841" />
      <path
         d="m 302.118,77.3634 c -2.699,0 -4.967,-0.4787 -6.804,-1.4359 -1.814,-0.9572 -3.176,-2.2299 -4.084,-3.8181 -0.906,-1.5882 -1.36,-3.3178 -1.36,-5.1887 0,-1.9145 0.387,-3.5462 1.161,-4.895 0.797,-1.3706 1.871,-2.491 3.221,-3.3612 1.372,-0.8703 2.954,-1.5338 4.746,-1.9907 1.815,-0.435 3.818,-0.8158 6.008,-1.1421 2.213,-0.3482 4.371,-0.6419 6.473,-0.8811 1.504,-0.1848 2.875,-0.3643 4.114,-0.5382 0.322,-0.0454 0.478,0.3832 0.2,0.5512 -0.2,0.1215 -0.458,-0.0252 -0.459,-0.2582 -0.012,-3.2092 -0.7,-5.6076 -2.063,-7.1952 -1.438,-1.6752 -3.939,-2.5128 -7.501,-2.5128 -2.457,0 -4.537,0.5439 -6.241,1.6317 -1.543,0.9981 -2.668,2.5276 -3.372,4.5882 -0.106,0.3109 -0.437,0.4932 -0.756,0.4014 l -3.613,-1.0434 c -0.311,-0.0896 -0.495,-0.4076 -0.403,-0.7146 0.862,-2.8885 2.461,-5.1515 4.792,-6.7887 2.478,-1.7404 5.698,-2.6106 9.659,-2.6106 3.275,0 6.052,0.6092 8.332,1.8274 2.301,1.1966 3.928,2.937 4.879,5.2214 0.442,1.0224 0.73,2.1646 0.863,3.4265 0.133,1.2618 0.199,2.5454 0.199,3.8507 V 75.791 c 0,0.3277 -0.268,0.5934 -0.599,0.5934 h -3.15 c -0.331,0 -0.6,-0.2657 -0.6,-0.5934 v -7.4322 c 0,-0.3889 0.4,-0.6525 0.763,-0.5026 0.277,0.1147 0.41,0.4287 0.292,0.7014 -1.221,2.782 -3.044,4.9232 -5.469,6.4235 -2.566,1.5883 -5.643,2.3823 -9.228,2.3823 z m 0.565,-4.1445 c 2.278,0 4.271,-0.4024 5.974,-1.2074 1.705,-0.805 3.077,-1.9036 4.116,-3.296 1.04,-1.414 1.716,-3.0022 2.026,-4.7644 0.265,-1.1314 0.409,-2.3714 0.431,-3.7202 0.015,-0.9593 0.026,-1.748 0.03,-2.3662 0.003,-0.3204 0.345,-0.5271 0.634,-0.3807 0.376,0.192 0.278,0.7485 -0.143,0.8012 -1.27,0.1592 -2.617,0.3182 -4.04,0.4772 -1.925,0.2176 -3.829,0.4677 -5.709,0.7505 -1.859,0.2829 -3.541,0.6201 -5.045,1.0117 -1.019,0.2828 -2.003,0.6853 -2.954,1.2074 -0.953,0.5003 -1.738,1.1748 -2.358,2.0233 -0.596,0.8484 -0.896,1.9035 -0.896,3.1654 0,1.0225 0.255,2.0125 0.764,2.9696 0.53,0.9572 1.372,1.7514 2.523,2.3823 1.173,0.6308 2.722,0.9463 4.647,0.9463 z"
         fill="#000000"
         id="path82843" />
      <path
         d="m 328.022,76.3843 c -0.331,0 -0.599,-0.2656 -0.599,-0.5933 V 41.7337 c 0,-0.3277 0.268,-0.5934 0.599,-0.5934 h 3.183 c 0.331,0 0.599,0.2657 0.599,0.5934 v 6.7143 c 0,0.3825 -0.49,0.5476 -0.725,0.2446 -0.085,-0.1101 -0.108,-0.2565 -0.057,-0.3855 0.388,-0.9636 0.881,-1.8514 1.479,-2.6634 0.643,-0.8919 1.339,-1.6208 2.091,-2.1864 0.93,-0.805 2.015,-1.4141 3.254,-1.8275 1.239,-0.435 2.49,-0.6853 3.751,-0.7505 1.08,-0.0745 2.079,-0.0214 2.997,0.1594 0.269,0.053 0.454,0.2918 0.454,0.5634 v 3.28 c 0,0.3865 -0.367,0.6695 -0.752,0.6037 -1.096,-0.1883 -2.272,-0.2117 -3.529,-0.0705 -1.549,0.174 -2.977,0.7832 -4.283,1.8275 -1.194,0.9137 -2.091,2.0124 -2.687,3.2959 -0.598,1.2619 -0.996,2.6107 -1.196,4.0466 -0.199,1.414 -0.299,2.8173 -0.299,4.2097 v 16.996 c 0,0.3277 -0.268,0.5933 -0.6,0.5933 z"
         fill="#000000"
         id="path82845" />
      <path
         d="m 362.099,77.3307 c -4.205,0 -7.669,-0.8919 -10.39,-2.6759 -2.529,-1.6708 -4.145,-3.9525 -4.85,-6.8447 -0.077,-0.3247 0.146,-0.6406 0.478,-0.6952 l 3.832,-0.6281 c 0.306,-0.05 0.598,0.1393 0.695,0.4299 0.592,1.7612 1.747,3.1875 3.462,4.279 1.904,1.1748 4.25,1.7622 7.038,1.7622 2.722,0 4.869,-0.5548 6.44,-1.6643 1.57,-1.1314 2.356,-2.6651 2.356,-4.6013 0,-1.0878 -0.254,-1.9689 -0.764,-2.6433 -0.486,-0.6962 -1.493,-1.338 -3.02,-1.9254 -1.528,-0.5874 -3.806,-1.2835 -6.838,-2.0885 -3.252,-0.8703 -5.797,-1.7404 -7.634,-2.6107 -1.837,-0.8703 -3.143,-1.8709 -3.917,-3.0023 -0.775,-1.153 -1.161,-2.5562 -1.161,-4.2097 0,-2.0014 0.575,-3.7528 1.725,-5.2539 1.151,-1.523 2.743,-2.6978 4.781,-3.5244 2.035,-0.8485 4.402,-1.2727 7.102,-1.2727 2.701,0 5.112,0.435 7.237,1.3053 2.146,0.8485 3.872,2.0451 5.178,3.5897 1.187,1.4037 1.934,3.0141 2.243,4.831 0.054,0.3098 -0.163,0.5966 -0.475,0.6518 l -3.823,0.6764 c -0.33,0.0585 -0.641,-0.1637 -0.719,-0.487 -0.425,-1.7881 -1.438,-3.2221 -3.035,-4.3016 -1.748,-1.2183 -3.973,-1.8493 -6.672,-1.8928 -2.545,-0.0652 -4.614,0.4134 -6.208,1.4359 -1.592,1.0008 -2.389,2.3388 -2.389,4.0139 0,0.9355 0.287,1.7404 0.862,2.4149 0.576,0.6526 1.617,1.2727 3.121,1.8601 1.526,0.5874 3.695,1.2292 6.506,1.9253 3.297,0.8267 5.887,1.697 7.767,2.6107 1.882,0.9137 3.219,1.9906 4.016,3.2307 0.797,1.2401 1.196,2.7738 1.196,4.6013 0,3.3286 -1.262,5.9501 -3.784,7.8646 -2.501,1.8928 -5.953,2.8391 -10.356,2.8391 z"
         fill="#000000"
         id="path82847" />
      <path
         d="m 202.979,76.3846 c -0.282,0 -0.511,-0.2247 -0.511,-0.502 V 29.8947 c 0,-0.2772 0.229,-0.5021 0.511,-0.5021 h 17.945 c 0.464,0 0.984,0.0218 1.559,0.0652 0.598,0.0219 1.195,0.0871 1.793,0.1958 2.5,0.37 4.614,1.2293 6.34,2.5781 1.748,1.3271 3.065,3.0022 3.95,5.0255 0.908,2.0233 1.362,4.2641 1.362,6.7225 0,2.4367 -0.454,4.6665 -1.362,6.6898 -0.908,2.0233 -2.235,3.7094 -3.983,5.0582 -1.726,1.3271 -3.829,2.1756 -6.307,2.5454 -0.598,0.0871 -1.195,0.1523 -1.793,0.1958 -0.575,0.0436 -1.095,0.0652 -1.559,0.0652 h -13.066 c -0.282,0 -0.511,0.2249 -0.511,0.5022 v 16.8463 c 0,0.2773 -0.228,0.502 -0.511,0.502 z m 4.368,-22.9211 c 0,0.2773 0.229,0.502 0.511,0.502 h 12.932 c 0.399,0 0.863,-0.0217 1.395,-0.0653 0.532,-0.0434 1.052,-0.1195 1.559,-0.2284 1.639,-0.348 2.977,-1.0117 4.018,-1.9907 1.062,-0.979 1.847,-2.1428 2.356,-3.4917 0.531,-1.3488 0.797,-2.752 0.797,-4.2097 0,-1.4575 -0.266,-2.8608 -0.797,-4.2097 -0.509,-1.3706 -1.294,-2.5454 -2.356,-3.5244 -1.041,-0.979 -2.379,-1.6425 -4.018,-1.9907 -0.507,-0.1087 -1.027,-0.1739 -1.559,-0.1958 -0.532,-0.0434 -0.996,-0.0652 -1.395,-0.0652 h -12.932 c -0.282,0 -0.511,0.2249 -0.511,0.5021 z"
         fill="#000000"
         id="path82849" />
    </mask>
    <mask
       id="mask2_60_430"
       maskUnits="userSpaceOnUse"
       x="200"
       y="26"
       width="178"
       height="53">
      <path
         d="M 377.737,26.9299 H 200.97 v 51.9167 h 176.767 z"
         fill="#ffffff"
         id="path82858" />
      <path
         d="m 254.706,77.3634 c -3.564,0 -6.607,-0.794 -9.129,-2.3823 -2.523,-1.5882 -4.46,-3.7854 -5.81,-6.5919 -1.349,-2.8065 -2.024,-6.0263 -2.024,-9.6595 0,-3.6984 0.686,-6.94 2.059,-9.7247 1.37,-2.7847 3.318,-4.9494 5.84,-6.494 2.546,-1.5664 5.567,-2.3496 9.064,-2.3496 3.584,0 6.637,0.794 9.16,2.3822 2.545,1.5664 4.482,3.7528 5.809,6.5593 1.35,2.7847 2.026,5.9937 2.026,9.6268 0,3.6984 -0.676,6.9509 -2.026,9.7574 -1.349,2.7847 -3.297,4.9603 -5.842,6.5267 -2.545,1.5664 -5.588,2.3496 -9.127,2.3496 z m 0,-4.6013 c 3.983,0 6.947,-1.2945 8.895,-3.8834 1.947,-2.6107 2.921,-5.9937 2.921,-10.149 0,-4.2641 -0.984,-7.658 -2.954,-10.1816 -1.948,-2.5235 -4.902,-3.7854 -8.862,-3.7854 -2.679,0 -4.892,0.5982 -6.64,1.7948 -1.725,1.1748 -3.02,2.8173 -3.884,4.9276 -0.84,2.0886 -1.261,4.5034 -1.261,7.2446 0,4.2424 0.996,7.6471 2.988,10.2143 1.991,2.5454 4.923,3.8181 8.797,3.8181 z"
         fill="#000000"
         id="path82860" />
      <path
         d="m 278.957,76.3843 c -0.33,0 -0.599,-0.2656 -0.599,-0.5933 V 29.0067 c 0,-0.3277 0.269,-0.5934 0.599,-0.5934 h 3.682 c 0.331,0 0.599,0.2657 0.599,0.5934 V 75.791 c 0,0.3277 -0.268,0.5933 -0.599,0.5933 z"
         fill="#000000"
         id="path82862" />
      <path
         d="m 302.118,77.3634 c -2.699,0 -4.967,-0.4787 -6.804,-1.4359 -1.814,-0.9572 -3.176,-2.2299 -4.084,-3.8181 -0.906,-1.5882 -1.36,-3.3178 -1.36,-5.1887 0,-1.9145 0.387,-3.5462 1.161,-4.895 0.797,-1.3706 1.871,-2.491 3.221,-3.3612 1.372,-0.8703 2.954,-1.5338 4.746,-1.9907 1.815,-0.435 3.818,-0.8158 6.008,-1.1421 2.213,-0.3482 4.371,-0.6419 6.473,-0.8811 1.504,-0.1848 2.875,-0.3643 4.114,-0.5382 0.322,-0.0454 0.478,0.3832 0.2,0.5512 -0.2,0.1215 -0.458,-0.0252 -0.459,-0.2582 -0.012,-3.2092 -0.7,-5.6076 -2.063,-7.1952 -1.438,-1.6752 -3.939,-2.5128 -7.501,-2.5128 -2.457,0 -4.537,0.5439 -6.241,1.6317 -1.543,0.9981 -2.668,2.5276 -3.372,4.5882 -0.106,0.3109 -0.437,0.4932 -0.756,0.4014 l -3.613,-1.0434 c -0.311,-0.0896 -0.495,-0.4076 -0.403,-0.7146 0.862,-2.8885 2.461,-5.1515 4.792,-6.7887 2.478,-1.7404 5.698,-2.6106 9.659,-2.6106 3.275,0 6.052,0.6092 8.332,1.8274 2.301,1.1966 3.928,2.937 4.879,5.2214 0.442,1.0224 0.73,2.1646 0.863,3.4265 0.133,1.2618 0.199,2.5454 0.199,3.8507 V 75.791 c 0,0.3277 -0.268,0.5934 -0.599,0.5934 h -3.15 c -0.331,0 -0.6,-0.2657 -0.6,-0.5934 v -7.4322 c 0,-0.3889 0.4,-0.6525 0.763,-0.5026 0.277,0.1147 0.41,0.4287 0.292,0.7014 -1.221,2.782 -3.044,4.9232 -5.469,6.4235 -2.566,1.5883 -5.643,2.3823 -9.228,2.3823 z m 0.565,-4.1445 c 2.278,0 4.271,-0.4024 5.974,-1.2074 1.705,-0.805 3.077,-1.9036 4.116,-3.296 1.04,-1.414 1.716,-3.0022 2.026,-4.7644 0.265,-1.1314 0.409,-2.3714 0.431,-3.7202 0.015,-0.9593 0.026,-1.748 0.03,-2.3662 0.003,-0.3204 0.345,-0.5271 0.634,-0.3807 0.376,0.192 0.278,0.7485 -0.143,0.8012 -1.27,0.1592 -2.617,0.3182 -4.04,0.4772 -1.925,0.2176 -3.829,0.4677 -5.709,0.7505 -1.859,0.2829 -3.541,0.6201 -5.045,1.0117 -1.019,0.2828 -2.003,0.6853 -2.954,1.2074 -0.953,0.5003 -1.738,1.1748 -2.358,2.0233 -0.596,0.8484 -0.896,1.9035 -0.896,3.1654 0,1.0225 0.255,2.0125 0.764,2.9696 0.53,0.9572 1.372,1.7514 2.523,2.3823 1.173,0.6308 2.722,0.9463 4.647,0.9463 z"
         fill="#000000"
         id="path82864" />
      <path
         d="m 328.022,76.3843 c -0.331,0 -0.599,-0.2656 -0.599,-0.5933 V 41.7337 c 0,-0.3277 0.268,-0.5934 0.599,-0.5934 h 3.183 c 0.331,0 0.599,0.2657 0.599,0.5934 v 6.7143 c 0,0.3825 -0.49,0.5476 -0.725,0.2446 -0.085,-0.1101 -0.108,-0.2565 -0.057,-0.3855 0.388,-0.9636 0.881,-1.8514 1.479,-2.6634 0.643,-0.8919 1.339,-1.6208 2.091,-2.1864 0.93,-0.805 2.015,-1.4141 3.254,-1.8275 1.239,-0.435 2.49,-0.6853 3.751,-0.7505 1.08,-0.0745 2.079,-0.0214 2.997,0.1594 0.269,0.053 0.454,0.2918 0.454,0.5634 v 3.28 c 0,0.3865 -0.367,0.6695 -0.752,0.6037 -1.096,-0.1883 -2.272,-0.2117 -3.529,-0.0705 -1.549,0.174 -2.977,0.7832 -4.283,1.8275 -1.194,0.9137 -2.091,2.0124 -2.687,3.2959 -0.598,1.2619 -0.996,2.6107 -1.196,4.0466 -0.199,1.414 -0.299,2.8173 -0.299,4.2097 v 16.996 c 0,0.3277 -0.268,0.5933 -0.6,0.5933 z"
         fill="#000000"
         id="path82866" />
      <path
         d="m 362.099,77.3307 c -4.205,0 -7.669,-0.8919 -10.39,-2.6759 -2.529,-1.6708 -4.145,-3.9525 -4.85,-6.8447 -0.077,-0.3247 0.146,-0.6406 0.478,-0.6952 l 3.832,-0.6281 c 0.306,-0.05 0.598,0.1393 0.695,0.4299 0.592,1.7612 1.747,3.1875 3.462,4.279 1.904,1.1748 4.25,1.7622 7.038,1.7622 2.722,0 4.869,-0.5548 6.44,-1.6643 1.57,-1.1314 2.356,-2.6651 2.356,-4.6013 0,-1.0878 -0.254,-1.9689 -0.764,-2.6433 -0.486,-0.6962 -1.493,-1.338 -3.02,-1.9254 -1.528,-0.5874 -3.806,-1.2835 -6.838,-2.0885 -3.252,-0.8703 -5.797,-1.7404 -7.634,-2.6107 -1.837,-0.8703 -3.143,-1.8709 -3.917,-3.0023 -0.775,-1.153 -1.161,-2.5562 -1.161,-4.2097 0,-2.0014 0.575,-3.7528 1.725,-5.2539 1.151,-1.523 2.743,-2.6978 4.781,-3.5244 2.035,-0.8485 4.402,-1.2727 7.102,-1.2727 2.701,0 5.112,0.435 7.237,1.3053 2.146,0.8485 3.872,2.0451 5.178,3.5897 1.187,1.4037 1.934,3.0141 2.243,4.831 0.054,0.3098 -0.163,0.5966 -0.475,0.6518 l -3.823,0.6764 c -0.33,0.0585 -0.641,-0.1637 -0.719,-0.487 -0.425,-1.7881 -1.438,-3.2221 -3.035,-4.3016 -1.748,-1.2183 -3.973,-1.8493 -6.672,-1.8928 -2.545,-0.0652 -4.614,0.4134 -6.208,1.4359 -1.592,1.0008 -2.389,2.3388 -2.389,4.0139 0,0.9355 0.287,1.7404 0.862,2.4149 0.576,0.6526 1.617,1.2727 3.121,1.8601 1.526,0.5874 3.695,1.2292 6.506,1.9253 3.297,0.8267 5.887,1.697 7.767,2.6107 1.882,0.9137 3.219,1.9906 4.016,3.2307 0.797,1.2401 1.196,2.7738 1.196,4.6013 0,3.3286 -1.262,5.9501 -3.784,7.8646 -2.501,1.8928 -5.953,2.8391 -10.356,2.8391 z"
         fill="#000000"
         id="path82868" />
      <path
         d="m 202.979,76.3846 c -0.282,0 -0.511,-0.2247 -0.511,-0.502 V 29.8947 c 0,-0.2772 0.229,-0.5021 0.511,-0.5021 h 17.945 c 0.464,0 0.984,0.0218 1.559,0.0652 0.598,0.0219 1.195,0.0871 1.793,0.1958 2.5,0.37 4.614,1.2293 6.34,2.5781 1.748,1.3271 3.065,3.0022 3.95,5.0255 0.908,2.0233 1.362,4.2641 1.362,6.7225 0,2.4367 -0.454,4.6665 -1.362,6.6898 -0.908,2.0233 -2.235,3.7094 -3.983,5.0582 -1.726,1.3271 -3.829,2.1756 -6.307,2.5454 -0.598,0.0871 -1.195,0.1523 -1.793,0.1958 -0.575,0.0436 -1.095,0.0652 -1.559,0.0652 h -13.066 c -0.282,0 -0.511,0.2249 -0.511,0.5022 v 16.8463 c 0,0.2773 -0.228,0.502 -0.511,0.502 z m 4.368,-22.9211 c 0,0.2773 0.229,0.502 0.511,0.502 h 12.932 c 0.399,0 0.863,-0.0217 1.395,-0.0653 0.532,-0.0434 1.052,-0.1195 1.559,-0.2284 1.639,-0.348 2.977,-1.0117 4.018,-1.9907 1.062,-0.979 1.847,-2.1428 2.356,-3.4917 0.531,-1.3488 0.797,-2.752 0.797,-4.2097 0,-1.4575 -0.266,-2.8608 -0.797,-4.2097 -0.509,-1.3706 -1.294,-2.5454 -2.356,-3.5244 -1.041,-0.979 -2.379,-1.6425 -4.018,-1.9907 -0.507,-0.1087 -1.027,-0.1739 -1.559,-0.1958 -0.532,-0.0434 -0.996,-0.0652 -1.395,-0.0652 h -12.932 c -0.282,0 -0.511,0.2249 -0.511,0.5021 z"
         fill="#000000"
         id="path82870" />
    </mask>
    <mask
       id="mask3_60_430"
       maskUnits="userSpaceOnUse"
       x="200"
       y="26"
       width="178"
       height="53">
      <path
         d="M 377.737,26.9299 H 200.97 v 51.9167 h 176.767 z"
         fill="#ffffff"
         id="path82879" />
      <path
         d="m 254.706,77.3634 c -3.564,0 -6.607,-0.794 -9.129,-2.3823 -2.523,-1.5882 -4.46,-3.7854 -5.81,-6.5919 -1.349,-2.8065 -2.024,-6.0263 -2.024,-9.6595 0,-3.6984 0.686,-6.94 2.059,-9.7247 1.37,-2.7847 3.318,-4.9494 5.84,-6.494 2.546,-1.5664 5.567,-2.3496 9.064,-2.3496 3.584,0 6.637,0.794 9.16,2.3822 2.545,1.5664 4.482,3.7528 5.809,6.5593 1.35,2.7847 2.026,5.9937 2.026,9.6268 0,3.6984 -0.676,6.9509 -2.026,9.7574 -1.349,2.7847 -3.297,4.9603 -5.842,6.5267 -2.545,1.5664 -5.588,2.3496 -9.127,2.3496 z m 0,-4.6013 c 3.983,0 6.947,-1.2945 8.895,-3.8834 1.947,-2.6107 2.921,-5.9937 2.921,-10.149 0,-4.2641 -0.984,-7.658 -2.954,-10.1816 -1.948,-2.5235 -4.902,-3.7854 -8.862,-3.7854 -2.679,0 -4.892,0.5982 -6.64,1.7948 -1.725,1.1748 -3.02,2.8173 -3.884,4.9276 -0.84,2.0886 -1.261,4.5034 -1.261,7.2446 0,4.2424 0.996,7.6471 2.988,10.2143 1.991,2.5454 4.923,3.8181 8.797,3.8181 z"
         fill="#000000"
         id="path82881" />
      <path
         d="m 278.957,76.3843 c -0.33,0 -0.599,-0.2656 -0.599,-0.5933 V 29.0067 c 0,-0.3277 0.269,-0.5934 0.599,-0.5934 h 3.682 c 0.331,0 0.599,0.2657 0.599,0.5934 V 75.791 c 0,0.3277 -0.268,0.5933 -0.599,0.5933 z"
         fill="#000000"
         id="path82883" />
      <path
         d="m 302.118,77.3634 c -2.699,0 -4.967,-0.4787 -6.804,-1.4359 -1.814,-0.9572 -3.176,-2.2299 -4.084,-3.8181 -0.906,-1.5882 -1.36,-3.3178 -1.36,-5.1887 0,-1.9145 0.387,-3.5462 1.161,-4.895 0.797,-1.3706 1.871,-2.491 3.221,-3.3612 1.372,-0.8703 2.954,-1.5338 4.746,-1.9907 1.815,-0.435 3.818,-0.8158 6.008,-1.1421 2.213,-0.3482 4.371,-0.6419 6.473,-0.8811 1.504,-0.1848 2.875,-0.3643 4.114,-0.5382 0.322,-0.0454 0.478,0.3832 0.2,0.5512 -0.2,0.1215 -0.458,-0.0252 -0.459,-0.2582 -0.012,-3.2092 -0.7,-5.6076 -2.063,-7.1952 -1.438,-1.6752 -3.939,-2.5128 -7.501,-2.5128 -2.457,0 -4.537,0.5439 -6.241,1.6317 -1.543,0.9981 -2.668,2.5276 -3.372,4.5882 -0.106,0.3109 -0.437,0.4932 -0.756,0.4014 l -3.613,-1.0434 c -0.311,-0.0896 -0.495,-0.4076 -0.403,-0.7146 0.862,-2.8885 2.461,-5.1515 4.792,-6.7887 2.478,-1.7404 5.698,-2.6106 9.659,-2.6106 3.275,0 6.052,0.6092 8.332,1.8274 2.301,1.1966 3.928,2.937 4.879,5.2214 0.442,1.0224 0.73,2.1646 0.863,3.4265 0.133,1.2618 0.199,2.5454 0.199,3.8507 V 75.791 c 0,0.3277 -0.268,0.5934 -0.599,0.5934 h -3.15 c -0.331,0 -0.6,-0.2657 -0.6,-0.5934 v -7.4322 c 0,-0.3889 0.4,-0.6525 0.763,-0.5026 0.277,0.1147 0.41,0.4287 0.292,0.7014 -1.221,2.782 -3.044,4.9232 -5.469,6.4235 -2.566,1.5883 -5.643,2.3823 -9.228,2.3823 z m 0.565,-4.1445 c 2.278,0 4.271,-0.4024 5.974,-1.2074 1.705,-0.805 3.077,-1.9036 4.116,-3.296 1.04,-1.414 1.716,-3.0022 2.026,-4.7644 0.265,-1.1314 0.409,-2.3714 0.431,-3.7202 0.015,-0.9593 0.026,-1.748 0.03,-2.3662 0.003,-0.3204 0.345,-0.5271 0.634,-0.3807 0.376,0.192 0.278,0.7485 -0.143,0.8012 -1.27,0.1592 -2.617,0.3182 -4.04,0.4772 -1.925,0.2176 -3.829,0.4677 -5.709,0.7505 -1.859,0.2829 -3.541,0.6201 -5.045,1.0117 -1.019,0.2828 -2.003,0.6853 -2.954,1.2074 -0.953,0.5003 -1.738,1.1748 -2.358,2.0233 -0.596,0.8484 -0.896,1.9035 -0.896,3.1654 0,1.0225 0.255,2.0125 0.764,2.9696 0.53,0.9572 1.372,1.7514 2.523,2.3823 1.173,0.6308 2.722,0.9463 4.647,0.9463 z"
         fill="#000000"
         id="path82885" />
      <path
         d="m 328.022,76.3843 c -0.331,0 -0.599,-0.2656 -0.599,-0.5933 V 41.7337 c 0,-0.3277 0.268,-0.5934 0.599,-0.5934 h 3.183 c 0.331,0 0.599,0.2657 0.599,0.5934 v 6.7143 c 0,0.3825 -0.49,0.5476 -0.725,0.2446 -0.085,-0.1101 -0.108,-0.2565 -0.057,-0.3855 0.388,-0.9636 0.881,-1.8514 1.479,-2.6634 0.643,-0.8919 1.339,-1.6208 2.091,-2.1864 0.93,-0.805 2.015,-1.4141 3.254,-1.8275 1.239,-0.435 2.49,-0.6853 3.751,-0.7505 1.08,-0.0745 2.079,-0.0214 2.997,0.1594 0.269,0.053 0.454,0.2918 0.454,0.5634 v 3.28 c 0,0.3865 -0.367,0.6695 -0.752,0.6037 -1.096,-0.1883 -2.272,-0.2117 -3.529,-0.0705 -1.549,0.174 -2.977,0.7832 -4.283,1.8275 -1.194,0.9137 -2.091,2.0124 -2.687,3.2959 -0.598,1.2619 -0.996,2.6107 -1.196,4.0466 -0.199,1.414 -0.299,2.8173 -0.299,4.2097 v 16.996 c 0,0.3277 -0.268,0.5933 -0.6,0.5933 z"
         fill="#000000"
         id="path82887" />
      <path
         d="m 362.099,77.3307 c -4.205,0 -7.669,-0.8919 -10.39,-2.6759 -2.529,-1.6708 -4.145,-3.9525 -4.85,-6.8447 -0.077,-0.3247 0.146,-0.6406 0.478,-0.6952 l 3.832,-0.6281 c 0.306,-0.05 0.598,0.1393 0.695,0.4299 0.592,1.7612 1.747,3.1875 3.462,4.279 1.904,1.1748 4.25,1.7622 7.038,1.7622 2.722,0 4.869,-0.5548 6.44,-1.6643 1.57,-1.1314 2.356,-2.6651 2.356,-4.6013 0,-1.0878 -0.254,-1.9689 -0.764,-2.6433 -0.486,-0.6962 -1.493,-1.338 -3.02,-1.9254 -1.528,-0.5874 -3.806,-1.2835 -6.838,-2.0885 -3.252,-0.8703 -5.797,-1.7404 -7.634,-2.6107 -1.837,-0.8703 -3.143,-1.8709 -3.917,-3.0023 -0.775,-1.153 -1.161,-2.5562 -1.161,-4.2097 0,-2.0014 0.575,-3.7528 1.725,-5.2539 1.151,-1.523 2.743,-2.6978 4.781,-3.5244 2.035,-0.8485 4.402,-1.2727 7.102,-1.2727 2.701,0 5.112,0.435 7.237,1.3053 2.146,0.8485 3.872,2.0451 5.178,3.5897 1.187,1.4037 1.934,3.0141 2.243,4.831 0.054,0.3098 -0.163,0.5966 -0.475,0.6518 l -3.823,0.6764 c -0.33,0.0585 -0.641,-0.1637 -0.719,-0.487 -0.425,-1.7881 -1.438,-3.2221 -3.035,-4.3016 -1.748,-1.2183 -3.973,-1.8493 -6.672,-1.8928 -2.545,-0.0652 -4.614,0.4134 -6.208,1.4359 -1.592,1.0008 -2.389,2.3388 -2.389,4.0139 0,0.9355 0.287,1.7404 0.862,2.4149 0.576,0.6526 1.617,1.2727 3.121,1.8601 1.526,0.5874 3.695,1.2292 6.506,1.9253 3.297,0.8267 5.887,1.697 7.767,2.6107 1.882,0.9137 3.219,1.9906 4.016,3.2307 0.797,1.2401 1.196,2.7738 1.196,4.6013 0,3.3286 -1.262,5.9501 -3.784,7.8646 -2.501,1.8928 -5.953,2.8391 -10.356,2.8391 z"
         fill="#000000"
         id="path82889" />
      <path
         d="m 202.979,76.3846 c -0.282,0 -0.511,-0.2247 -0.511,-0.502 V 29.8947 c 0,-0.2772 0.229,-0.5021 0.511,-0.5021 h 17.945 c 0.464,0 0.984,0.0218 1.559,0.0652 0.598,0.0219 1.195,0.0871 1.793,0.1958 2.5,0.37 4.614,1.2293 6.34,2.5781 1.748,1.3271 3.065,3.0022 3.95,5.0255 0.908,2.0233 1.362,4.2641 1.362,6.7225 0,2.4367 -0.454,4.6665 -1.362,6.6898 -0.908,2.0233 -2.235,3.7094 -3.983,5.0582 -1.726,1.3271 -3.829,2.1756 -6.307,2.5454 -0.598,0.0871 -1.195,0.1523 -1.793,0.1958 -0.575,0.0436 -1.095,0.0652 -1.559,0.0652 h -13.066 c -0.282,0 -0.511,0.2249 -0.511,0.5022 v 16.8463 c 0,0.2773 -0.228,0.502 -0.511,0.502 z m 4.368,-22.9211 c 0,0.2773 0.229,0.502 0.511,0.502 h 12.932 c 0.399,0 0.863,-0.0217 1.395,-0.0653 0.532,-0.0434 1.052,-0.1195 1.559,-0.2284 1.639,-0.348 2.977,-1.0117 4.018,-1.9907 1.062,-0.979 1.847,-2.1428 2.356,-3.4917 0.531,-1.3488 0.797,-2.752 0.797,-4.2097 0,-1.4575 -0.266,-2.8608 -0.797,-4.2097 -0.509,-1.3706 -1.294,-2.5454 -2.356,-3.5244 -1.041,-0.979 -2.379,-1.6425 -4.018,-1.9907 -0.507,-0.1087 -1.027,-0.1739 -1.559,-0.1958 -0.532,-0.0434 -0.996,-0.0652 -1.395,-0.0652 h -12.932 c -0.282,0 -0.511,0.2249 -0.511,0.5021 z"
         fill="#000000"
         id="path82891" />
    </mask>
    <mask
       id="mask4_60_430"
       maskUnits="userSpaceOnUse"
       x="200"
       y="26"
       width="178"
       height="53">
      <path
         d="M 377.737,26.9299 H 200.97 v 51.9167 h 176.767 z"
         fill="#ffffff"
         id="path82900" />
      <path
         d="m 254.706,77.3634 c -3.564,0 -6.607,-0.794 -9.129,-2.3823 -2.523,-1.5882 -4.46,-3.7854 -5.81,-6.5919 -1.349,-2.8065 -2.024,-6.0263 -2.024,-9.6595 0,-3.6984 0.686,-6.94 2.059,-9.7247 1.37,-2.7847 3.318,-4.9494 5.84,-6.494 2.546,-1.5664 5.567,-2.3496 9.064,-2.3496 3.584,0 6.637,0.794 9.16,2.3822 2.545,1.5664 4.482,3.7528 5.809,6.5593 1.35,2.7847 2.026,5.9937 2.026,9.6268 0,3.6984 -0.676,6.9509 -2.026,9.7574 -1.349,2.7847 -3.297,4.9603 -5.842,6.5267 -2.545,1.5664 -5.588,2.3496 -9.127,2.3496 z m 0,-4.6013 c 3.983,0 6.947,-1.2945 8.895,-3.8834 1.947,-2.6107 2.921,-5.9937 2.921,-10.149 0,-4.2641 -0.984,-7.658 -2.954,-10.1816 -1.948,-2.5235 -4.902,-3.7854 -8.862,-3.7854 -2.679,0 -4.892,0.5982 -6.64,1.7948 -1.725,1.1748 -3.02,2.8173 -3.884,4.9276 -0.84,2.0886 -1.261,4.5034 -1.261,7.2446 0,4.2424 0.996,7.6471 2.988,10.2143 1.991,2.5454 4.923,3.8181 8.797,3.8181 z"
         fill="#000000"
         id="path82902" />
      <path
         d="m 278.957,76.3843 c -0.33,0 -0.599,-0.2656 -0.599,-0.5933 V 29.0067 c 0,-0.3277 0.269,-0.5934 0.599,-0.5934 h 3.682 c 0.331,0 0.599,0.2657 0.599,0.5934 V 75.791 c 0,0.3277 -0.268,0.5933 -0.599,0.5933 z"
         fill="#000000"
         id="path82904" />
      <path
         d="m 302.118,77.3634 c -2.699,0 -4.967,-0.4787 -6.804,-1.4359 -1.814,-0.9572 -3.176,-2.2299 -4.084,-3.8181 -0.906,-1.5882 -1.36,-3.3178 -1.36,-5.1887 0,-1.9145 0.387,-3.5462 1.161,-4.895 0.797,-1.3706 1.871,-2.491 3.221,-3.3612 1.372,-0.8703 2.954,-1.5338 4.746,-1.9907 1.815,-0.435 3.818,-0.8158 6.008,-1.1421 2.213,-0.3482 4.371,-0.6419 6.473,-0.8811 1.504,-0.1848 2.875,-0.3643 4.114,-0.5382 0.322,-0.0454 0.478,0.3832 0.2,0.5512 -0.2,0.1215 -0.458,-0.0252 -0.459,-0.2582 -0.012,-3.2092 -0.7,-5.6076 -2.063,-7.1952 -1.438,-1.6752 -3.939,-2.5128 -7.501,-2.5128 -2.457,0 -4.537,0.5439 -6.241,1.6317 -1.543,0.9981 -2.668,2.5276 -3.372,4.5882 -0.106,0.3109 -0.437,0.4932 -0.756,0.4014 l -3.613,-1.0434 c -0.311,-0.0896 -0.495,-0.4076 -0.403,-0.7146 0.862,-2.8885 2.461,-5.1515 4.792,-6.7887 2.478,-1.7404 5.698,-2.6106 9.659,-2.6106 3.275,0 6.052,0.6092 8.332,1.8274 2.301,1.1966 3.928,2.937 4.879,5.2214 0.442,1.0224 0.73,2.1646 0.863,3.4265 0.133,1.2618 0.199,2.5454 0.199,3.8507 V 75.791 c 0,0.3277 -0.268,0.5934 -0.599,0.5934 h -3.15 c -0.331,0 -0.6,-0.2657 -0.6,-0.5934 v -7.4322 c 0,-0.3889 0.4,-0.6525 0.763,-0.5026 0.277,0.1147 0.41,0.4287 0.292,0.7014 -1.221,2.782 -3.044,4.9232 -5.469,6.4235 -2.566,1.5883 -5.643,2.3823 -9.228,2.3823 z m 0.565,-4.1445 c 2.278,0 4.271,-0.4024 5.974,-1.2074 1.705,-0.805 3.077,-1.9036 4.116,-3.296 1.04,-1.414 1.716,-3.0022 2.026,-4.7644 0.265,-1.1314 0.409,-2.3714 0.431,-3.7202 0.015,-0.9593 0.026,-1.748 0.03,-2.3662 0.003,-0.3204 0.345,-0.5271 0.634,-0.3807 0.376,0.192 0.278,0.7485 -0.143,0.8012 -1.27,0.1592 -2.617,0.3182 -4.04,0.4772 -1.925,0.2176 -3.829,0.4677 -5.709,0.7505 -1.859,0.2829 -3.541,0.6201 -5.045,1.0117 -1.019,0.2828 -2.003,0.6853 -2.954,1.2074 -0.953,0.5003 -1.738,1.1748 -2.358,2.0233 -0.596,0.8484 -0.896,1.9035 -0.896,3.1654 0,1.0225 0.255,2.0125 0.764,2.9696 0.53,0.9572 1.372,1.7514 2.523,2.3823 1.173,0.6308 2.722,0.9463 4.647,0.9463 z"
         fill="#000000"
         id="path82906" />
      <path
         d="m 328.022,76.3843 c -0.331,0 -0.599,-0.2656 -0.599,-0.5933 V 41.7337 c 0,-0.3277 0.268,-0.5934 0.599,-0.5934 h 3.183 c 0.331,0 0.599,0.2657 0.599,0.5934 v 6.7143 c 0,0.3825 -0.49,0.5476 -0.725,0.2446 -0.085,-0.1101 -0.108,-0.2565 -0.057,-0.3855 0.388,-0.9636 0.881,-1.8514 1.479,-2.6634 0.643,-0.8919 1.339,-1.6208 2.091,-2.1864 0.93,-0.805 2.015,-1.4141 3.254,-1.8275 1.239,-0.435 2.49,-0.6853 3.751,-0.7505 1.08,-0.0745 2.079,-0.0214 2.997,0.1594 0.269,0.053 0.454,0.2918 0.454,0.5634 v 3.28 c 0,0.3865 -0.367,0.6695 -0.752,0.6037 -1.096,-0.1883 -2.272,-0.2117 -3.529,-0.0705 -1.549,0.174 -2.977,0.7832 -4.283,1.8275 -1.194,0.9137 -2.091,2.0124 -2.687,3.2959 -0.598,1.2619 -0.996,2.6107 -1.196,4.0466 -0.199,1.414 -0.299,2.8173 -0.299,4.2097 v 16.996 c 0,0.3277 -0.268,0.5933 -0.6,0.5933 z"
         fill="#000000"
         id="path82908" />
      <path
         d="m 362.099,77.3307 c -4.205,0 -7.669,-0.8919 -10.39,-2.6759 -2.529,-1.6708 -4.145,-3.9525 -4.85,-6.8447 -0.077,-0.3247 0.146,-0.6406 0.478,-0.6952 l 3.832,-0.6281 c 0.306,-0.05 0.598,0.1393 0.695,0.4299 0.592,1.7612 1.747,3.1875 3.462,4.279 1.904,1.1748 4.25,1.7622 7.038,1.7622 2.722,0 4.869,-0.5548 6.44,-1.6643 1.57,-1.1314 2.356,-2.6651 2.356,-4.6013 0,-1.0878 -0.254,-1.9689 -0.764,-2.6433 -0.486,-0.6962 -1.493,-1.338 -3.02,-1.9254 -1.528,-0.5874 -3.806,-1.2835 -6.838,-2.0885 -3.252,-0.8703 -5.797,-1.7404 -7.634,-2.6107 -1.837,-0.8703 -3.143,-1.8709 -3.917,-3.0023 -0.775,-1.153 -1.161,-2.5562 -1.161,-4.2097 0,-2.0014 0.575,-3.7528 1.725,-5.2539 1.151,-1.523 2.743,-2.6978 4.781,-3.5244 2.035,-0.8485 4.402,-1.2727 7.102,-1.2727 2.701,0 5.112,0.435 7.237,1.3053 2.146,0.8485 3.872,2.0451 5.178,3.5897 1.187,1.4037 1.934,3.0141 2.243,4.831 0.054,0.3098 -0.163,0.5966 -0.475,0.6518 l -3.823,0.6764 c -0.33,0.0585 -0.641,-0.1637 -0.719,-0.487 -0.425,-1.7881 -1.438,-3.2221 -3.035,-4.3016 -1.748,-1.2183 -3.973,-1.8493 -6.672,-1.8928 -2.545,-0.0652 -4.614,0.4134 -6.208,1.4359 -1.592,1.0008 -2.389,2.3388 -2.389,4.0139 0,0.9355 0.287,1.7404 0.862,2.4149 0.576,0.6526 1.617,1.2727 3.121,1.8601 1.526,0.5874 3.695,1.2292 6.506,1.9253 3.297,0.8267 5.887,1.697 7.767,2.6107 1.882,0.9137 3.219,1.9906 4.016,3.2307 0.797,1.2401 1.196,2.7738 1.196,4.6013 0,3.3286 -1.262,5.9501 -3.784,7.8646 -2.501,1.8928 -5.953,2.8391 -10.356,2.8391 z"
         fill="#000000"
         id="path82910" />
      <path
         d="m 202.979,76.3846 c -0.282,0 -0.511,-0.2247 -0.511,-0.502 V 29.8947 c 0,-0.2772 0.229,-0.5021 0.511,-0.5021 h 17.945 c 0.464,0 0.984,0.0218 1.559,0.0652 0.598,0.0219 1.195,0.0871 1.793,0.1958 2.5,0.37 4.614,1.2293 6.34,2.5781 1.748,1.3271 3.065,3.0022 3.95,5.0255 0.908,2.0233 1.362,4.2641 1.362,6.7225 0,2.4367 -0.454,4.6665 -1.362,6.6898 -0.908,2.0233 -2.235,3.7094 -3.983,5.0582 -1.726,1.3271 -3.829,2.1756 -6.307,2.5454 -0.598,0.0871 -1.195,0.1523 -1.793,0.1958 -0.575,0.0436 -1.095,0.0652 -1.559,0.0652 h -13.066 c -0.282,0 -0.511,0.2249 -0.511,0.5022 v 16.8463 c 0,0.2773 -0.228,0.502 -0.511,0.502 z m 4.368,-22.9211 c 0,0.2773 0.229,0.502 0.511,0.502 h 12.932 c 0.399,0 0.863,-0.0217 1.395,-0.0653 0.532,-0.0434 1.052,-0.1195 1.559,-0.2284 1.639,-0.348 2.977,-1.0117 4.018,-1.9907 1.062,-0.979 1.847,-2.1428 2.356,-3.4917 0.531,-1.3488 0.797,-2.752 0.797,-4.2097 0,-1.4575 -0.266,-2.8608 -0.797,-4.2097 -0.509,-1.3706 -1.294,-2.5454 -2.356,-3.5244 -1.041,-0.979 -2.379,-1.6425 -4.018,-1.9907 -0.507,-0.1087 -1.027,-0.1739 -1.559,-0.1958 -0.532,-0.0434 -0.996,-0.0652 -1.395,-0.0652 h -12.932 c -0.282,0 -0.511,0.2249 -0.511,0.5021 z"
         fill="#000000"
         id="path82912" />
    </mask>
    <mask
       id="mask5_60_430"
       maskUnits="userSpaceOnUse"
       x="200"
       y="26"
       width="178"
       height="53">
      <path
         d="M 377.737,26.9299 H 200.97 v 51.9167 h 176.767 z"
         fill="#ffffff"
         id="path82921" />
      <path
         d="m 254.706,77.3634 c -3.564,0 -6.607,-0.794 -9.129,-2.3823 -2.523,-1.5882 -4.46,-3.7854 -5.81,-6.5919 -1.349,-2.8065 -2.024,-6.0263 -2.024,-9.6595 0,-3.6984 0.686,-6.94 2.059,-9.7247 1.37,-2.7847 3.318,-4.9494 5.84,-6.494 2.546,-1.5664 5.567,-2.3496 9.064,-2.3496 3.584,0 6.637,0.794 9.16,2.3822 2.545,1.5664 4.482,3.7528 5.809,6.5593 1.35,2.7847 2.026,5.9937 2.026,9.6268 0,3.6984 -0.676,6.9509 -2.026,9.7574 -1.349,2.7847 -3.297,4.9603 -5.842,6.5267 -2.545,1.5664 -5.588,2.3496 -9.127,2.3496 z m 0,-4.6013 c 3.983,0 6.947,-1.2945 8.895,-3.8834 1.947,-2.6107 2.921,-5.9937 2.921,-10.149 0,-4.2641 -0.984,-7.658 -2.954,-10.1816 -1.948,-2.5235 -4.902,-3.7854 -8.862,-3.7854 -2.679,0 -4.892,0.5982 -6.64,1.7948 -1.725,1.1748 -3.02,2.8173 -3.884,4.9276 -0.84,2.0886 -1.261,4.5034 -1.261,7.2446 0,4.2424 0.996,7.6471 2.988,10.2143 1.991,2.5454 4.923,3.8181 8.797,3.8181 z"
         fill="#000000"
         id="path82923" />
      <path
         d="m 278.957,76.3843 c -0.33,0 -0.599,-0.2656 -0.599,-0.5933 V 29.0067 c 0,-0.3277 0.269,-0.5934 0.599,-0.5934 h 3.682 c 0.331,0 0.599,0.2657 0.599,0.5934 V 75.791 c 0,0.3277 -0.268,0.5933 -0.599,0.5933 z"
         fill="#000000"
         id="path82925" />
      <path
         d="m 302.118,77.3634 c -2.699,0 -4.967,-0.4787 -6.804,-1.4359 -1.814,-0.9572 -3.176,-2.2299 -4.084,-3.8181 -0.906,-1.5882 -1.36,-3.3178 -1.36,-5.1887 0,-1.9145 0.387,-3.5462 1.161,-4.895 0.797,-1.3706 1.871,-2.491 3.221,-3.3612 1.372,-0.8703 2.954,-1.5338 4.746,-1.9907 1.815,-0.435 3.818,-0.8158 6.008,-1.1421 2.213,-0.3482 4.371,-0.6419 6.473,-0.8811 1.504,-0.1848 2.875,-0.3643 4.114,-0.5382 0.322,-0.0454 0.478,0.3832 0.2,0.5512 -0.2,0.1215 -0.458,-0.0252 -0.459,-0.2582 -0.012,-3.2092 -0.7,-5.6076 -2.063,-7.1952 -1.438,-1.6752 -3.939,-2.5128 -7.501,-2.5128 -2.457,0 -4.537,0.5439 -6.241,1.6317 -1.543,0.9981 -2.668,2.5276 -3.372,4.5882 -0.106,0.3109 -0.437,0.4932 -0.756,0.4014 l -3.613,-1.0434 c -0.311,-0.0896 -0.495,-0.4076 -0.403,-0.7146 0.862,-2.8885 2.461,-5.1515 4.792,-6.7887 2.478,-1.7404 5.698,-2.6106 9.659,-2.6106 3.275,0 6.052,0.6092 8.332,1.8274 2.301,1.1966 3.928,2.937 4.879,5.2214 0.442,1.0224 0.73,2.1646 0.863,3.4265 0.133,1.2618 0.199,2.5454 0.199,3.8507 V 75.791 c 0,0.3277 -0.268,0.5934 -0.599,0.5934 h -3.15 c -0.331,0 -0.6,-0.2657 -0.6,-0.5934 v -7.4322 c 0,-0.3889 0.4,-0.6525 0.763,-0.5026 0.277,0.1147 0.41,0.4287 0.292,0.7014 -1.221,2.782 -3.044,4.9232 -5.469,6.4235 -2.566,1.5883 -5.643,2.3823 -9.228,2.3823 z m 0.565,-4.1445 c 2.278,0 4.271,-0.4024 5.974,-1.2074 1.705,-0.805 3.077,-1.9036 4.116,-3.296 1.04,-1.414 1.716,-3.0022 2.026,-4.7644 0.265,-1.1314 0.409,-2.3714 0.431,-3.7202 0.015,-0.9593 0.026,-1.748 0.03,-2.3662 0.003,-0.3204 0.345,-0.5271 0.634,-0.3807 0.376,0.192 0.278,0.7485 -0.143,0.8012 -1.27,0.1592 -2.617,0.3182 -4.04,0.4772 -1.925,0.2176 -3.829,0.4677 -5.709,0.7505 -1.859,0.2829 -3.541,0.6201 -5.045,1.0117 -1.019,0.2828 -2.003,0.6853 -2.954,1.2074 -0.953,0.5003 -1.738,1.1748 -2.358,2.0233 -0.596,0.8484 -0.896,1.9035 -0.896,3.1654 0,1.0225 0.255,2.0125 0.764,2.9696 0.53,0.9572 1.372,1.7514 2.523,2.3823 1.173,0.6308 2.722,0.9463 4.647,0.9463 z"
         fill="#000000"
         id="path82927" />
      <path
         d="m 328.022,76.3843 c -0.331,0 -0.599,-0.2656 -0.599,-0.5933 V 41.7337 c 0,-0.3277 0.268,-0.5934 0.599,-0.5934 h 3.183 c 0.331,0 0.599,0.2657 0.599,0.5934 v 6.7143 c 0,0.3825 -0.49,0.5476 -0.725,0.2446 -0.085,-0.1101 -0.108,-0.2565 -0.057,-0.3855 0.388,-0.9636 0.881,-1.8514 1.479,-2.6634 0.643,-0.8919 1.339,-1.6208 2.091,-2.1864 0.93,-0.805 2.015,-1.4141 3.254,-1.8275 1.239,-0.435 2.49,-0.6853 3.751,-0.7505 1.08,-0.0745 2.079,-0.0214 2.997,0.1594 0.269,0.053 0.454,0.2918 0.454,0.5634 v 3.28 c 0,0.3865 -0.367,0.6695 -0.752,0.6037 -1.096,-0.1883 -2.272,-0.2117 -3.529,-0.0705 -1.549,0.174 -2.977,0.7832 -4.283,1.8275 -1.194,0.9137 -2.091,2.0124 -2.687,3.2959 -0.598,1.2619 -0.996,2.6107 -1.196,4.0466 -0.199,1.414 -0.299,2.8173 -0.299,4.2097 v 16.996 c 0,0.3277 -0.268,0.5933 -0.6,0.5933 z"
         fill="#000000"
         id="path82929" />
      <path
         d="m 362.099,77.3307 c -4.205,0 -7.669,-0.8919 -10.39,-2.6759 -2.529,-1.6708 -4.145,-3.9525 -4.85,-6.8447 -0.077,-0.3247 0.146,-0.6406 0.478,-0.6952 l 3.832,-0.6281 c 0.306,-0.05 0.598,0.1393 0.695,0.4299 0.592,1.7612 1.747,3.1875 3.462,4.279 1.904,1.1748 4.25,1.7622 7.038,1.7622 2.722,0 4.869,-0.5548 6.44,-1.6643 1.57,-1.1314 2.356,-2.6651 2.356,-4.6013 0,-1.0878 -0.254,-1.9689 -0.764,-2.6433 -0.486,-0.6962 -1.493,-1.338 -3.02,-1.9254 -1.528,-0.5874 -3.806,-1.2835 -6.838,-2.0885 -3.252,-0.8703 -5.797,-1.7404 -7.634,-2.6107 -1.837,-0.8703 -3.143,-1.8709 -3.917,-3.0023 -0.775,-1.153 -1.161,-2.5562 -1.161,-4.2097 0,-2.0014 0.575,-3.7528 1.725,-5.2539 1.151,-1.523 2.743,-2.6978 4.781,-3.5244 2.035,-0.8485 4.402,-1.2727 7.102,-1.2727 2.701,0 5.112,0.435 7.237,1.3053 2.146,0.8485 3.872,2.0451 5.178,3.5897 1.187,1.4037 1.934,3.0141 2.243,4.831 0.054,0.3098 -0.163,0.5966 -0.475,0.6518 l -3.823,0.6764 c -0.33,0.0585 -0.641,-0.1637 -0.719,-0.487 -0.425,-1.7881 -1.438,-3.2221 -3.035,-4.3016 -1.748,-1.2183 -3.973,-1.8493 -6.672,-1.8928 -2.545,-0.0652 -4.614,0.4134 -6.208,1.4359 -1.592,1.0008 -2.389,2.3388 -2.389,4.0139 0,0.9355 0.287,1.7404 0.862,2.4149 0.576,0.6526 1.617,1.2727 3.121,1.8601 1.526,0.5874 3.695,1.2292 6.506,1.9253 3.297,0.8267 5.887,1.697 7.767,2.6107 1.882,0.9137 3.219,1.9906 4.016,3.2307 0.797,1.2401 1.196,2.7738 1.196,4.6013 0,3.3286 -1.262,5.9501 -3.784,7.8646 -2.501,1.8928 -5.953,2.8391 -10.356,2.8391 z"
         fill="#000000"
         id="path82931" />
      <path
         d="m 202.979,76.3846 c -0.282,0 -0.511,-0.2247 -0.511,-0.502 V 29.8947 c 0,-0.2772 0.229,-0.5021 0.511,-0.5021 h 17.945 c 0.464,0 0.984,0.0218 1.559,0.0652 0.598,0.0219 1.195,0.0871 1.793,0.1958 2.5,0.37 4.614,1.2293 6.34,2.5781 1.748,1.3271 3.065,3.0022 3.95,5.0255 0.908,2.0233 1.362,4.2641 1.362,6.7225 0,2.4367 -0.454,4.6665 -1.362,6.6898 -0.908,2.0233 -2.235,3.7094 -3.983,5.0582 -1.726,1.3271 -3.829,2.1756 -6.307,2.5454 -0.598,0.0871 -1.195,0.1523 -1.793,0.1958 -0.575,0.0436 -1.095,0.0652 -1.559,0.0652 h -13.066 c -0.282,0 -0.511,0.2249 -0.511,0.5022 v 16.8463 c 0,0.2773 -0.228,0.502 -0.511,0.502 z m 4.368,-22.9211 c 0,0.2773 0.229,0.502 0.511,0.502 h 12.932 c 0.399,0 0.863,-0.0217 1.395,-0.0653 0.532,-0.0434 1.052,-0.1195 1.559,-0.2284 1.639,-0.348 2.977,-1.0117 4.018,-1.9907 1.062,-0.979 1.847,-2.1428 2.356,-3.4917 0.531,-1.3488 0.797,-2.752 0.797,-4.2097 0,-1.4575 -0.266,-2.8608 -0.797,-4.2097 -0.509,-1.3706 -1.294,-2.5454 -2.356,-3.5244 -1.041,-0.979 -2.379,-1.6425 -4.018,-1.9907 -0.507,-0.1087 -1.027,-0.1739 -1.559,-0.1958 -0.532,-0.0434 -0.996,-0.0652 -1.395,-0.0652 h -12.932 c -0.282,0 -0.511,0.2249 -0.511,0.5021 z"
         fill="#000000"
         id="path82933" />
    </mask>
    <mask
       id="mask6_60_430"
       maskUnits="userSpaceOnUse"
       x="200"
       y="26"
       width="178"
       height="53">
      <path
         d="M 377.737,26.9299 H 200.97 v 52.0212 h 176.767 z"
         fill="#ffffff"
         id="path82942" />
      <path
         d="m 254.705,77.4646 c -3.563,0 -6.606,-0.7956 -9.129,-2.387 -2.522,-1.5914 -4.459,-3.7931 -5.809,-6.6052 -1.35,-2.8121 -2.024,-6.0385 -2.024,-9.6789 0,-3.7059 0.686,-6.9541 2.059,-9.7443 1.37,-2.7903 3.318,-4.9594 5.84,-6.5071 2.546,-1.5696 5.567,-2.3544 9.063,-2.3544 3.585,0 6.638,0.7957 9.161,2.3871 2.545,1.5695 4.482,3.7604 5.809,6.5725 1.35,2.7902 2.026,6.0057 2.026,9.6462 0,3.7058 -0.676,6.9649 -2.026,9.777 -1.35,2.7902 -3.297,4.9702 -5.842,6.5398 -2.545,1.5695 -5.588,2.3543 -9.128,2.3543 z m 0,-4.6106 c 3.984,0 6.948,-1.2971 8.896,-3.8911 1.947,-2.616 2.921,-6.0058 2.921,-10.1694 0,-4.2727 -0.984,-7.6734 -2.954,-10.2021 -1.948,-2.5287 -4.902,-3.7931 -8.863,-3.7931 -2.678,0 -4.891,0.5994 -6.639,1.7984 -1.726,1.1772 -3.02,2.823 -3.884,4.9376 -0.841,2.0927 -1.261,4.5125 -1.261,7.2592 0,4.2508 0.996,7.6624 2.988,10.2348 1.991,2.5505 4.923,3.8257 8.796,3.8257 z"
         fill="#000000"
         id="path82944" />
      <path
         d="m 278.957,76.4835 c -0.33,0 -0.599,-0.2662 -0.599,-0.5945 V 29.0105 c 0,-0.3283 0.269,-0.5945 0.599,-0.5945 h 3.682 c 0.331,0 0.599,0.2662 0.599,0.5945 V 75.889 c 0,0.3283 -0.268,0.5945 -0.599,0.5945 z"
         fill="#000000"
         id="path82946" />
      <path
         d="m 302.118,77.4646 c -2.7,0 -4.968,-0.4796 -6.804,-1.4388 -1.814,-0.9591 -3.176,-2.2343 -4.084,-3.8257 -0.906,-1.5914 -1.36,-3.3245 -1.36,-5.1992 0,-1.9184 0.387,-3.5533 1.161,-4.9048 0.797,-1.3734 1.871,-2.496 3.221,-3.368 1.372,-0.872 2.954,-1.5369 4.746,-1.9947 1.815,-0.4359 3.818,-0.8174 6.008,-1.1444 2.213,-0.3489 4.371,-0.6432 6.473,-0.8829 1.504,-0.1852 2.875,-0.365 4.114,-0.5392 0.322,-0.0455 0.477,0.3839 0.2,0.5523 -0.2,0.1217 -0.458,-0.0253 -0.46,-0.2588 -0.012,-3.2156 -0.699,-5.6189 -2.062,-7.2097 -1.438,-1.6785 -3.939,-2.5178 -7.501,-2.5178 -2.457,0 -4.537,0.545 -6.241,1.635 -1.543,1.0001 -2.668,2.5326 -3.372,4.5974 -0.106,0.3116 -0.437,0.4942 -0.756,0.4022 l -3.613,-1.0454 c -0.311,-0.0898 -0.495,-0.4085 -0.403,-0.7162 0.862,-2.8943 2.461,-5.1618 4.792,-6.8022 2.477,-1.7439 5.698,-2.616 9.659,-2.616 3.275,0 6.052,0.6105 8.332,1.8312 2.301,1.199 3.928,2.9429 4.879,5.2318 0.442,1.0245 0.73,2.169 0.863,3.4334 0.133,1.2644 0.199,2.5505 0.199,3.8585 v 21.3465 c 0,0.3283 -0.268,0.5945 -0.599,0.5945 h -3.15 c -0.331,0 -0.6,-0.2662 -0.6,-0.5945 v -7.4472 c 0,-0.3897 0.4,-0.6538 0.763,-0.5036 0.277,0.1149 0.41,0.4296 0.292,0.7028 -1.221,2.7876 -3.044,4.9331 -5.469,6.4365 -2.566,1.5914 -5.643,2.387 -9.228,2.387 z m 0.565,-4.1528 c 2.278,0 4.271,-0.4032 5.974,-1.2098 1.705,-0.8067 3.077,-1.9074 4.116,-3.3026 1.04,-1.4169 1.716,-3.0083 2.026,-4.7741 0.265,-1.1336 0.409,-2.3762 0.431,-3.7277 0.015,-0.9612 0.026,-1.7514 0.03,-2.3709 0.003,-0.3211 0.345,-0.5281 0.634,-0.3814 0.376,0.1923 0.278,0.75 -0.143,0.8027 -1.27,0.1595 -2.617,0.3188 -4.04,0.4782 -1.925,0.218 -3.829,0.4686 -5.709,0.752 -1.859,0.2835 -3.541,0.6213 -5.045,1.0137 -1.019,0.2835 -2.003,0.6867 -2.954,1.2099 -0.953,0.5013 -1.738,1.1771 -2.358,2.0273 -0.596,0.8502 -0.896,1.9074 -0.896,3.1718 0,1.0245 0.255,2.0165 0.764,2.9756 0.53,0.9592 1.372,1.7549 2.523,2.3871 1.173,0.6321 2.722,0.9482 4.647,0.9482 z"
         fill="#000000"
         id="path82948" />
      <path
         d="m 328.022,76.4837 c -0.331,0 -0.599,-0.2662 -0.599,-0.5945 V 41.7633 c 0,-0.3283 0.268,-0.5945 0.599,-0.5945 h 3.183 c 0.331,0 0.599,0.2662 0.599,0.5945 v 6.7278 c 0,0.3833 -0.49,0.5488 -0.725,0.2451 -0.085,-0.1103 -0.108,-0.257 -0.057,-0.3863 0.388,-0.9655 0.881,-1.8551 1.479,-2.6687 0.643,-0.8937 1.339,-1.6241 2.091,-2.1908 0.93,-0.8066 2.015,-1.4169 3.254,-1.8311 1.239,-0.436 2.49,-0.6867 3.751,-0.7521 1.08,-0.0746 2.079,-0.0214 2.997,0.1598 0.269,0.053 0.454,0.2923 0.454,0.5645 v 3.2865 c 0,0.3873 -0.367,0.6709 -0.752,0.6049 -1.096,-0.1886 -2.272,-0.2121 -3.529,-0.0706 -1.549,0.1744 -2.977,0.7848 -4.283,1.8312 -1.194,0.9156 -2.091,2.0165 -2.687,3.3026 -0.598,1.2644 -0.996,2.6159 -1.196,4.0547 -0.199,1.4169 -0.299,2.8229 -0.299,4.2181 v 17.0303 c 0,0.3283 -0.268,0.5945 -0.6,0.5945 z"
         fill="#000000"
         id="path82950" />
      <path
         d="m 362.099,77.4319 c -4.205,0 -7.669,-0.8937 -10.39,-2.6813 -2.529,-1.6742 -4.145,-3.9605 -4.85,-6.8585 -0.077,-0.3253 0.146,-0.6419 0.478,-0.6966 l 3.832,-0.6293 c 0.306,-0.0501 0.598,0.1395 0.695,0.4307 0.592,1.7647 1.747,3.194 3.462,4.2876 1.904,1.1772 4.25,1.7657 7.038,1.7657 2.722,0 4.869,-0.5558 6.44,-1.6676 1.57,-1.1336 2.356,-2.6705 2.356,-4.6106 0,-1.0899 -0.254,-1.9728 -0.764,-2.6486 -0.486,-0.6975 -1.493,-1.3406 -3.02,-1.9292 -1.528,-0.5886 -3.806,-1.2861 -6.838,-2.0928 -3.252,-0.872 -5.797,-1.7439 -7.634,-2.6159 -1.837,-0.872 -3.143,-1.8747 -3.917,-3.0083 -0.775,-1.1553 -1.161,-2.5614 -1.161,-4.2182 0,-2.0055 0.575,-3.7604 1.725,-5.2645 1.151,-1.526 2.743,-2.7032 4.781,-3.5315 2.035,-0.8502 4.402,-1.2753 7.102,-1.2753 2.701,0 5.112,0.436 7.237,1.308 2.146,0.8502 3.872,2.0492 5.178,3.5969 1.187,1.4065 1.934,3.0202 2.243,4.8408 0.054,0.3103 -0.163,0.5978 -0.475,0.6531 l -3.823,0.6777 c -0.33,0.0586 -0.641,-0.1641 -0.719,-0.4879 -0.425,-1.7918 -1.438,-3.2286 -3.035,-4.3103 -1.748,-1.2208 -3.973,-1.853 -6.672,-1.8966 -2.545,-0.0654 -4.614,0.4142 -6.208,1.4388 -1.592,1.0028 -2.389,2.3434 -2.389,4.0219 0,0.9375 0.287,1.7439 0.862,2.4198 0.576,0.6539 1.617,1.2752 3.121,1.8638 1.526,0.5886 3.695,1.2317 6.506,1.9293 3.297,0.8283 5.887,1.7003 7.767,2.6159 1.882,0.9155 3.219,1.9946 4.016,3.2372 0.797,1.2425 1.196,2.7794 1.196,4.6105 0,3.3353 -1.262,5.9621 -3.784,7.8805 -2.501,1.8965 -5.953,2.8448 -10.356,2.8448 z"
         fill="#000000"
         id="path82952" />
      <path
         d="m 202.979,76.4838 c -0.282,0 -0.511,-0.2252 -0.511,-0.503 V 29.9003 c 0,-0.2778 0.229,-0.5031 0.511,-0.5031 h 17.945 c 0.464,0 0.984,0.0219 1.559,0.0654 0.598,0.0219 1.195,0.0873 1.793,0.1962 2.5,0.3707 4.614,1.2317 6.34,2.5832 1.748,1.3298 3.065,3.0083 3.95,5.0357 0.908,2.0273 1.362,4.2727 1.362,6.736 0,2.4415 -0.454,4.6759 -1.362,6.7033 -0.908,2.0273 -2.235,3.7168 -3.983,5.0683 -1.726,1.3298 -3.829,2.18 -6.307,2.5505 -0.598,0.0873 -1.195,0.1527 -1.793,0.1962 -0.575,0.0437 -1.095,0.0654 -1.559,0.0654 h -13.066 c -0.282,0 -0.511,0.2253 -0.511,0.5031 v 16.8803 c 0,0.2778 -0.228,0.503 -0.511,0.503 z m 4.368,-22.9672 c 0,0.2778 0.229,0.503 0.511,0.503 h 12.932 c 0.399,0 0.863,-0.0217 1.395,-0.0654 0.532,-0.0436 1.052,-0.1198 1.559,-0.2289 1.639,-0.3487 2.977,-1.0137 4.018,-1.9947 1.062,-0.9809 1.847,-2.1471 2.356,-3.4988 0.531,-1.3515 0.797,-2.7575 0.797,-4.2181 0,-1.4605 -0.266,-2.8665 -0.797,-4.2182 -0.509,-1.3734 -1.294,-2.5505 -2.356,-3.5315 -1.041,-0.981 -2.379,-1.6458 -4.018,-1.9946 -0.507,-0.109 -1.027,-0.1744 -1.559,-0.1962 -0.532,-0.0436 -0.996,-0.0654 -1.395,-0.0654 h -12.932 c -0.282,0 -0.511,0.2253 -0.511,0.5031 z"
         fill="#000000"
         id="path82954" />
    </mask>
    <clipPath
       clipPathUnits="userSpaceOnUse"
       id="clipPath10236">
      <rect
         style="fill:#dc0069;stroke:#e6a5c5;stroke-width:2.1;stroke-linejoin:round;stroke-opacity:0.985318;paint-order:fill markers stroke"
         id="rect10238"
         width="49.871616"
         height="103.85378"
         x="105.68189"
         y="-4.7903361" />
    </clipPath>
    <clipPath
       clipPathUnits="userSpaceOnUse"
       id="clipPath10456">
      <rect
         style="fill:#dc0069;stroke:#e6a5c5;stroke-width:1.67528;stroke-linejoin:round;stroke-opacity:0.985318;paint-order:fill markers stroke"
         id="rect10458"
         width="30.194101"
         height="113.07291"
         x="47.144478"
         y="-9.4283342" />
    </clipPath>
    <clipPath
       clipPathUnits="userSpaceOnUse"
       id="clipPath10484">
      <rect
         style="fill:#dc0069;stroke:#e6a5c5;stroke-width:2.1;stroke-linejoin:round;stroke-opacity:0.985318;paint-order:fill markers stroke"
         id="rect10486"
         width="21.01861"
         height="120.25041"
         x="132.95551"
         y="-5.9840989" />
    </clipPath>
  </defs>
  <g
     id="g10258"
     style="display:none">
    <g
       id="g10571"
       transform="translate(-6.6612228)">
      <path
         id="path10248"
         style="fill:#e6a5c5;fill-opacity:1;stroke:#df96b3;stroke-width:1.55787;stroke-linejoin:round;stroke-opacity:1;paint-order:fill markers stroke"
         d="M 117.35899,2.7389527 H 76.196774 a 9.1430489,44.647813 0 0 0 -0.77982,-0.1830477 9.1430489,44.647813 0 0 0 -9.142773,44.647941 9.1430489,44.647813 0 0 0 9.027973,44.629102 v 0.221081 h 41.671196 l 3.6e-4,-0.118007 a 9.1430489,44.647813 0 0 1 -8.79801,-44.5374 9.1430489,44.647813 0 0 1 9.14314,-44.647586 9.1430489,44.647813 0 0 1 0.0402,0.012793 z"
         clip-path="url(#clipPath10456)"
         transform="translate(49.212525)" />
      <path
         id="path10252"
         style="fill:#e6a5c5;fill-opacity:1;stroke:#df96b3;stroke-width:1.55787;stroke-linejoin:round;stroke-opacity:1;paint-order:fill markers stroke"
         d="M 147.03742,2.7389527 H 105.8752 a 9.1430489,44.647813 0 0 0 -0.77982,-0.1830477 9.1430489,44.647813 0 0 0 -9.142773,44.647941 9.1430489,44.647813 0 0 0 9.027973,44.629102 v 0.221081 h 41.6712 l 3.6e-4,-0.118007 a 9.1430489,44.647813 0 0 1 -8.79801,-44.5374 9.1430489,44.647813 0 0 1 9.14314,-44.647586 9.1430489,44.647813 0 0 1 0.0402,0.012793 z"
         clip-path="url(#clipPath10484)"
         transform="translate(-6.6033282)" />
      <ellipse
         style="opacity:0.864097;fill:#dc0069;fill-opacity:1;stroke:#dd0069;stroke-width:1.55787;stroke-linejoin:round;stroke-opacity:0.72549;paint-order:fill markers stroke"
         id="ellipse10254"
         cx="47.398727"
         cy="-140.69269"
         rx="44.647812"
         ry="9.1430492"
         transform="rotate(90)" />
    </g>
  </g>
  <g
     id="g34709"
     style="display:none">
    <g
       id="g34695"
       transform="matrix(0.68780282,0,0,0.68780282,87.147199,-7.1466371)">
      <path
         id="path34691"
         style="opacity:1;fill:#e6a5c5;fill-opacity:1;stroke:#df96b3;stroke-width:2.265;stroke-linejoin:round;stroke-opacity:1;paint-order:fill markers stroke"
         d="m 87.007263,14.372709 h -59.84596 a 13.293125,64.913681 0 0 0 -1.13378,-0.266134 13.293125,64.913681 0 0 0 -13.29273,64.913867 13.293125,64.913681 0 0 0 13.125815,64.886478 v 0.32143 h 60.585966 l 5.29e-4,-0.17157 A 13.293125,64.913681 0 0 1 73.655637,79.303628 13.293125,64.913681 0 0 1 86.948883,14.390277 a 13.293125,64.913681 0 0 1 0.05839,0.0186 z" />
      <ellipse
         style="opacity:0.864097;fill:#dc0069;fill-opacity:1;stroke:#dd0069;stroke-width:2.265;stroke-linejoin:round;stroke-opacity:0.72549;paint-order:fill markers stroke"
         id="ellipse34693"
         cx="79.30378"
         cy="-86.948647"
         rx="64.913681"
         ry="13.293125"
         transform="rotate(90)" />
    </g>
  </g>
  <g
     id="layer1"
     style="display:none">
    <g
       id="g10246"
       transform="translate(20.050902)">
      <path
         id="path10228"
         style="fill:#e6a5c5;fill-opacity:1;stroke:#df96b3;stroke-width:1.55787;stroke-linejoin:round;stroke-opacity:1;paint-order:fill markers stroke"
         d="m 97.261711,2.7389527 h -41.16222 a 9.1430489,44.647813 0 0 0 -0.77982,-0.1830477 9.1430489,44.647813 0 0 0 -9.142773,44.647941 9.1430489,44.647813 0 0 0 9.027973,44.629102 v 0.221081 h 41.6712 l 3.6e-4,-0.118007 a 9.1430489,44.647813 0 0 1 -8.79801,-44.5374 9.1430489,44.647813 0 0 1 9.14314,-44.647586 9.1430489,44.647813 0 0 1 0.0402,0.012793 z" />
      <path
         id="path10110"
         style="fill:#e6a5c5;fill-opacity:1;stroke:#df96b3;stroke-width:1.55787;stroke-linejoin:round;stroke-opacity:1;paint-order:fill markers stroke"
         d="M 147.03742,2.7389527 H 105.8752 a 9.1430489,44.647813 0 0 0 -0.77982,-0.1830477 9.1430489,44.647813 0 0 0 -9.142773,44.647941 9.1430489,44.647813 0 0 0 9.027973,44.629102 v 0.221081 h 41.6712 l 3.6e-4,-0.118007 a 9.1430489,44.647813 0 0 1 -8.79801,-44.5374 9.1430489,44.647813 0 0 1 9.14314,-44.647586 9.1430489,44.647813 0 0 1 0.0402,0.012793 z"
         clip-path="url(#clipPath10236)"
         transform="translate(-19.89432)" />
      <path
         id="path10240"
         style="fill:#e6a5c5;fill-opacity:1;stroke:#df96b3;stroke-width:1.55787;stroke-linejoin:round;stroke-opacity:1;paint-order:fill markers stroke"
         d="M 147.03742,2.7389527 H 105.8752 a 9.1430489,44.647813 0 0 0 -0.77982,-0.1830477 9.1430489,44.647813 0 0 0 -9.142773,44.647941 9.1430489,44.647813 0 0 0 9.027973,44.629102 v 0.221081 h 41.6712 l 3.6e-4,-0.118007 a 9.1430489,44.647813 0 0 1 -8.79801,-44.5374 9.1430489,44.647813 0 0 1 9.14314,-44.647586 9.1430489,44.647813 0 0 1 0.0402,0.012793 z"
         clip-path="url(#clipPath10236)"
         transform="translate(8.7535679)" />
      <ellipse
         style="opacity:0.864097;fill:#dc0069;fill-opacity:1;stroke:#dd0069;stroke-width:1.55787;stroke-linejoin:round;stroke-opacity:0.72549;paint-order:fill markers stroke"
         id="ellipse10112"
         cx="47.398727"
         cy="-156.57825"
         rx="44.647812"
         ry="9.1430492"
         transform="rotate(90)" />
    </g>
  </g>
  <g
     id="layer3"
     style="display:inline">
    <path
       style="fill:#dd0069;fill-opacity:0.964706;stroke:#dd0069;stroke-width:1.065;stroke-linecap:butt;stroke-linejoin:miter;stroke-miterlimit:4;stroke-dasharray:none;stroke-opacity:0.964706;marker-start:url(#Arrow2Mstart);marker-end:url(#Arrow2Mend)"
       d="M 11.475446,104.35942 H 238.80808"
       id="path21293" />
    <rect
       style="fill:#ffffff;fill-opacity:1;stroke:#ffffff;stroke-width:1.01809;stroke-linejoin:round;stroke-miterlimit:4;stroke-dasharray:none;stroke-opacity:0.964706;paint-order:fill markers stroke"
       id="rect30071"
       width="59.451099"
       height="13.479043"
       x="82.573936"
       y="95.946663" />
    <g
       id="g10627"
       transform="translate(-106.27231)">
      <g
         id="g10625"
         transform="translate(-6.6612228)"
         style="display:inline">
        <path
           id="path10619"
           style="fill:#e6a5c5;fill-opacity:1;stroke:#df96b3;stroke-width:1.55787;stroke-linejoin:round;stroke-opacity:1;paint-order:fill markers stroke"
           d="M 117.35899,2.7389527 H 76.196774 a 9.1430489,44.647813 0 0 0 -0.77982,-0.1830477 9.1430489,44.647813 0 0 0 -9.142773,44.647941 9.1430489,44.647813 0 0 0 9.027973,44.629102 v 0.221081 h 41.671196 l 3.6e-4,-0.118007 a 9.1430489,44.647813 0 0 1 -8.79801,-44.5374 9.1430489,44.647813 0 0 1 9.14314,-44.647586 9.1430489,44.647813 0 0 1 0.0402,0.012793 z"
           clip-path="url(#clipPath10456)"
           transform="translate(49.212525)" />
        <path
           id="path10621"
           style="fill:#e6a5c5;fill-opacity:1;stroke:#df96b3;stroke-width:1.55787;stroke-linejoin:round;stroke-opacity:1;paint-order:fill markers stroke"
           d="M 147.03742,2.7389527 H 105.8752 a 9.1430489,44.647813 0 0 0 -0.77982,-0.1830477 9.1430489,44.647813 0 0 0 -9.142773,44.647941 9.1430489,44.647813 0 0 0 9.027973,44.629102 v 0.221081 h 41.6712 l 3.6e-4,-0.118007 a 9.1430489,44.647813 0 0 1 -8.79801,-44.5374 9.1430489,44.647813 0 0 1 9.14314,-44.647586 9.1430489,44.647813 0 0 1 0.0402,0.012793 z"
           clip-path="url(#clipPath10484)"
           transform="translate(-6.6033282)" />
        <ellipse
           style="opacity:0.864097;fill:#dc0069;fill-opacity:1;stroke:#dd0069;stroke-width:1.55787;stroke-linejoin:round;stroke-opacity:0.72549;paint-order:fill markers stroke"
           id="ellipse10623"
           cx="47.398727"
           cy="-140.69269"
           rx="44.647812"
           ry="9.1430492"
           transform="rotate(90)" />
      </g>
    </g>
    <g
       id="g10593"
       transform="matrix(0.68780282,0,0,0.68780282,14.182752,-7.1466371)"
       style="display:inline">
      <path
         id="path10589"
         style="opacity:1;fill:#e6a5c5;fill-opacity:1;stroke:#df96b3;stroke-width:2.265;stroke-linejoin:round;stroke-opacity:1;paint-order:fill markers stroke"
         d="m 87.007263,14.372709 h -59.84596 a 13.293125,64.913681 0 0 0 -1.13378,-0.266134 13.293125,64.913681 0 0 0 -13.29273,64.913867 13.293125,64.913681 0 0 0 13.125815,64.886478 v 0.32143 h 60.585966 l 5.29e-4,-0.17157 A 13.293125,64.913681 0 0 1 73.655637,79.303628 13.293125,64.913681 0 0 1 86.948883,14.390277 a 13.293125,64.913681 0 0 1 0.05839,0.0186 z" />
      <ellipse
         style="opacity:0.864097;fill:#dc0069;fill-opacity:1;stroke:#dd0069;stroke-width:2.265;stroke-linejoin:round;stroke-opacity:0.72549;paint-order:fill markers stroke"
         id="ellipse10591"
         cx="79.30378"
         cy="-86.948647"
         rx="64.913681"
         ry="13.293125"
         transform="rotate(90)" />
    </g>
    <g
       id="g10606"
       transform="translate(23.739098)"
       style="display:inline">
      <path
         id="path10598"
         style="fill:#e6a5c5;fill-opacity:1;stroke:#df96b3;stroke-width:1.55787;stroke-linejoin:round;stroke-opacity:1;paint-order:fill markers stroke"
         d="m 97.261711,2.7389527 h -41.16222 a 9.1430489,44.647813 0 0 0 -0.77982,-0.1830477 9.1430489,44.647813 0 0 0 -9.142773,44.647941 9.1430489,44.647813 0 0 0 9.027973,44.629102 v 0.221081 h 41.6712 l 3.6e-4,-0.118007 a 9.1430489,44.647813 0 0 1 -8.79801,-44.5374 9.1430489,44.647813 0 0 1 9.14314,-44.647586 9.1430489,44.647813 0 0 1 0.0402,0.012793 z" />
      <path
         id="path10600"
         style="fill:#e6a5c5;fill-opacity:1;stroke:#df96b3;stroke-width:1.55787;stroke-linejoin:round;stroke-opacity:1;paint-order:fill markers stroke"
         d="M 147.03742,2.7389527 H 105.8752 a 9.1430489,44.647813 0 0 0 -0.77982,-0.1830477 9.1430489,44.647813 0 0 0 -9.142773,44.647941 9.1430489,44.647813 0 0 0 9.027973,44.629102 v 0.221081 h 41.6712 l 3.6e-4,-0.118007 a 9.1430489,44.647813 0 0 1 -8.79801,-44.5374 9.1430489,44.647813 0 0 1 9.14314,-44.647586 9.1430489,44.647813 0 0 1 0.0402,0.012793 z"
         clip-path="url(#clipPath10236)"
         transform="translate(-19.89432)" />
      <path
         id="path10602"
         style="fill:#e6a5c5;fill-opacity:1;stroke:#df96b3;stroke-width:1.55787;stroke-linejoin:round;stroke-opacity:1;paint-order:fill markers stroke"
         d="M 147.03742,2.7389527 H 105.8752 a 9.1430489,44.647813 0 0 0 -0.77982,-0.1830477 9.1430489,44.647813 0 0 0 -9.142773,44.647941 9.1430489,44.647813 0 0 0 9.027973,44.629102 v 0.221081 h 41.6712 l 3.6e-4,-0.118007 a 9.1430489,44.647813 0 0 1 -8.79801,-44.5374 9.1430489,44.647813 0 0 1 9.14314,-44.647586 9.1430489,44.647813 0 0 1 0.0402,0.012793 z"
         clip-path="url(#clipPath10236)"
         transform="translate(8.7535679)" />
      <ellipse
         style="opacity:0.864097;fill:#dc0069;fill-opacity:1;stroke:#dd0069;stroke-width:1.55787;stroke-linejoin:round;stroke-opacity:0.72549;paint-order:fill markers stroke"
         id="ellipse10604"
         cx="47.398727"
         cy="-156.57825"
         rx="44.647812"
         ry="9.1430492"
         transform="rotate(90)" />
    </g>
    <g
       id="g10617"
       transform="translate(66.281924)">
      <g
         id="g10583"
         transform="translate(-6.6612228)"
         style="display:inline">
        <path
           id="path10577"
           style="fill:#e6a5c5;fill-opacity:1;stroke:#df96b3;stroke-width:1.55787;stroke-linejoin:round;stroke-opacity:1;paint-order:fill markers stroke"
           d="M 117.35899,2.7389527 H 76.196774 a 9.1430489,44.647813 0 0 0 -0.77982,-0.1830477 9.1430489,44.647813 0 0 0 -9.142773,44.647941 9.1430489,44.647813 0 0 0 9.027973,44.629102 v 0.221081 h 41.671196 l 3.6e-4,-0.118007 a 9.1430489,44.647813 0 0 1 -8.79801,-44.5374 9.1430489,44.647813 0 0 1 9.14314,-44.647586 9.1430489,44.647813 0 0 1 0.0402,0.012793 z"
           clip-path="url(#clipPath10456)"
           transform="translate(49.212525)" />
        <path
           id="path10579"
           style="fill:#e6a5c5;fill-opacity:1;stroke:#df96b3;stroke-width:1.55787;stroke-linejoin:round;stroke-opacity:1;paint-order:fill markers stroke"
           d="M 147.03742,2.7389527 H 105.8752 a 9.1430489,44.647813 0 0 0 -0.77982,-0.1830477 9.1430489,44.647813 0 0 0 -9.142773,44.647941 9.1430489,44.647813 0 0 0 9.027973,44.629102 v 0.221081 h 41.6712 l 3.6e-4,-0.118007 a 9.1430489,44.647813 0 0 1 -8.79801,-44.5374 9.1430489,44.647813 0 0 1 9.14314,-44.647586 9.1430489,44.647813 0 0 1 0.0402,0.012793 z"
           clip-path="url(#clipPath10484)"
           transform="translate(-6.6033282)" />
        <ellipse
           style="opacity:0.864097;fill:#dc0069;fill-opacity:1;stroke:#dd0069;stroke-width:1.55787;stroke-linejoin:round;stroke-opacity:0.72549;paint-order:fill markers stroke"
           id="ellipse10581"
           cx="47.398727"
           cy="-140.69269"
           rx="44.647812"
           ry="9.1430492"
           transform="rotate(90)" />
      </g>
    </g>
    <g
       id="g10637"
       transform="translate(85.331934)">
      <g
         id="g10635"
         transform="translate(-6.6612228)"
         style="display:inline">
        <path
           id="path10629"
           style="fill:#e6a5c5;fill-opacity:1;stroke:#df96b3;stroke-width:1.55787;stroke-linejoin:round;stroke-opacity:1;paint-order:fill markers stroke"
           d="M 117.35899,2.7389527 H 76.196774 a 9.1430489,44.647813 0 0 0 -0.77982,-0.1830477 9.1430489,44.647813 0 0 0 -9.142773,44.647941 9.1430489,44.647813 0 0 0 9.027973,44.629102 v 0.221081 h 41.671196 l 3.6e-4,-0.118007 a 9.1430489,44.647813 0 0 1 -8.79801,-44.5374 9.1430489,44.647813 0 0 1 9.14314,-44.647586 9.1430489,44.647813 0 0 1 0.0402,0.012793 z"
           clip-path="url(#clipPath10456)"
           transform="translate(49.212525)" />
        <path
           id="path10631"
           style="fill:#e6a5c5;fill-opacity:1;stroke:#df96b3;stroke-width:1.55787;stroke-linejoin:round;stroke-opacity:1;paint-order:fill markers stroke"
           d="M 147.03742,2.7389527 H 105.8752 a 9.1430489,44.647813 0 0 0 -0.77982,-0.1830477 9.1430489,44.647813 0 0 0 -9.142773,44.647941 9.1430489,44.647813 0 0 0 9.027973,44.629102 v 0.221081 h 41.6712 l 3.6e-4,-0.118007 a 9.1430489,44.647813 0 0 1 -8.79801,-44.5374 9.1430489,44.647813 0 0 1 9.14314,-44.647586 9.1430489,44.647813 0 0 1 0.0402,0.012793 z"
           clip-path="url(#clipPath10484)"
           transform="translate(-6.6033282)" />
        <ellipse
           style="opacity:0.864097;fill:#dc0069;fill-opacity:1;stroke:#dd0069;stroke-width:1.55787;stroke-linejoin:round;stroke-opacity:0.72549;paint-order:fill markers stroke"
           id="ellipse10633"
           cx="47.398727"
           cy="-140.69269"
           rx="44.647812"
           ry="9.1430492"
           transform="rotate(90)" />
      </g>
    </g>
    <g
       id="g10647"
       transform="translate(104.38197)">
      <g
         id="g10645"
         transform="translate(-6.6612228)"
         style="display:inline">
        <path
           id="path10639"
           style="fill:#e6a5c5;fill-opacity:1;stroke:#df96b3;stroke-width:1.55787;stroke-linejoin:round;stroke-opacity:1;paint-order:fill markers stroke"
           d="M 117.35899,2.7389527 H 76.196774 a 9.1430489,44.647813 0 0 0 -0.77982,-0.1830477 9.1430489,44.647813 0 0 0 -9.142773,44.647941 9.1430489,44.647813 0 0 0 9.027973,44.629102 v 0.221081 h 41.671196 l 3.6e-4,-0.118007 a 9.1430489,44.647813 0 0 1 -8.79801,-44.5374 9.1430489,44.647813 0 0 1 9.14314,-44.647586 9.1430489,44.647813 0 0 1 0.0402,0.012793 z"
           clip-path="url(#clipPath10456)"
           transform="translate(49.212525)" />
        <path
           id="path10641"
           style="fill:#e6a5c5;fill-opacity:1;stroke:#df96b3;stroke-width:1.55787;stroke-linejoin:round;stroke-opacity:1;paint-order:fill markers stroke"
           d="M 147.03742,2.7389527 H 105.8752 a 9.1430489,44.647813 0 0 0 -0.77982,-0.1830477 9.1430489,44.647813 0 0 0 -9.142773,44.647941 9.1430489,44.647813 0 0 0 9.027973,44.629102 v 0.221081 h 41.6712 l 3.6e-4,-0.118007 a 9.1430489,44.647813 0 0 1 -8.79801,-44.5374 9.1430489,44.647813 0 0 1 9.14314,-44.647586 9.1430489,44.647813 0 0 1 0.0402,0.012793 z"
           clip-path="url(#clipPath10484)"
           transform="translate(-6.6033282)" />
        <ellipse
           style="opacity:0.864097;fill:#dc0069;fill-opacity:1;stroke:#dd0069;stroke-width:1.55787;stroke-linejoin:round;stroke-opacity:0.72549;paint-order:fill markers stroke"
           id="ellipse10643"
           cx="47.398727"
           cy="-140.69269"
           rx="44.647812"
           ry="9.1430492"
           transform="rotate(90)" />
      </g>
    </g>
    <text
       xml:space="preserve"
       style="font-size:14.1111px;line-height:1.25;font-family:'Shadows Into Light';-inkscape-font-specification:'Shadows Into Light, ';font-variant-ligatures:none;letter-spacing:0px;word-spacing:0px;writing-mode:lr-tb;fill:#dd0069;fill-opacity:0.964706;stroke-width:0.264583"
       x="83.221237"
       y="108.0546"
       id="text5662"><tspan
         id="tspan5660"
         style="font-size:14.1111px;fill:#dd0069;fill-opacity:0.964706;stroke-width:0.264583"
         x="83.221237"
         y="108.0546">Total</tspan></text>
  </g>
  <g
     id="layer2"
     style="display:inline">
    <text
       xml:space="preserve"
       style="font-size:8.46667px;line-height:1.25;font-family:Urbanist;-inkscape-font-specification:'Urbanist, Normal';font-variant-ligatures:none;letter-spacing:0px;word-spacing:0px;writing-mode:lr-tb;display:inline;fill:#dc0069;fill-opacity:0.964706;stroke-width:0.264583"
       x="110.80776"
       y="106.26442"
       id="text106413"><tspan
         style="font-weight:bold;font-size:8.46667px;fill:#dc0069;fill-opacity:0.964706;stroke-width:0.264583"
         x="110.80776"
         y="106.26442"
         id="tspan8449">Latency</tspan></text>
  </g>
</svg>
