<?xml version="1.0" encoding="UTF-8" standalone="no"?>
<!-- Created with Inkscape (http://www.inkscape.org/) -->

<svg
   width="252mm"
   height="110mm"
   viewBox="0 0 252 110"
   version="1.1"
   id="svg20325"
   xmlns="http://www.w3.org/2000/svg"
   xmlns:svg="http://www.w3.org/2000/svg">
  <defs
     id="defs20322">
    <style
       type="text/css"
       id="style150557"><![CDATA[
     @import url(https://fonts.googleapis.com/css?family=Urbanist:400,800,400italic);
    ]]></style>
  </defs>
  <g
     id="layer1"
     style="display:inline">
    <g
       id="g34347"
       transform="matrix(0.68780282,0,0,0.68780282,-6.0419112,-7.1466371)"
       style="display:inline">
      <path
         id="ellipse20644"
         style="opacity:1;fill:#e6a5c5;fill-opacity:1;stroke:#df96b3;stroke-width:2.265;stroke-linejoin:round;stroke-opacity:1;paint-order:fill markers stroke"
         d="m 87.007263,14.372709 h -59.84596 a 13.293125,64.913681 0 0 0 -1.13378,-0.266134 13.293125,64.913681 0 0 0 -13.29273,64.913867 13.293125,64.913681 0 0 0 13.125815,64.886478 v 0.32143 h 60.585966 l 5.29e-4,-0.17157 A 13.293125,64.913681 0 0 1 73.655637,79.303628 13.293125,64.913681 0 0 1 86.948883,14.390277 a 13.293125,64.913681 0 0 1 0.05839,0.0186 z" />
      <ellipse
         style="opacity:0.864097;fill:#dc0069;fill-opacity:1;stroke:#dd0069;stroke-width:2.265;stroke-linejoin:round;stroke-opacity:0.72549;paint-order:fill markers stroke"
         id="ellipse29503"
         cx="79.30378"
         cy="-86.948647"
         rx="64.913681"
         ry="13.293125"
         transform="rotate(90)" />
    </g>
    <text
       xml:space="preserve"
       style="font-size:8.46667px;line-height:1.25;font-family:Urbanist;-inkscape-font-specification:'Urbanist, Normal';font-variant-ligatures:none;letter-spacing:0px;word-spacing:0px;writing-mode:lr-tb;fill:#dc0069;fill-opacity:0.964706;stroke-width:0.264583"
       x="4.1107235"
       y="106.26442"
       id="text38466"><tspan
         id="tspan38464"
         style="font-weight:bold;font-size:8.46667px;fill:#dc0069;fill-opacity:0.964706;stroke-width:0.264583"
         x="4.1107235"
         y="106.26442">Collection</tspan></text>
  </g>
  <g
     id="layer6"
     style="display:inline;opacity:1">
    <g
       id="g83107"
       transform="matrix(0.22049973,0,0,-0.22049973,-5.9743502,306.67949)"
       style="fill:#dd0069;fill-opacity:1">
      <path
         d="m 71.111,1166.004 h 75.516 v -7.068 H 71.111 Z"
         style="opacity:1;fill:#dd0069;fill-opacity:1;fill-rule:nonzero;stroke:none"
         id="path28007" />
      <g
         transform="translate(130.3811,1180.8618)"
         id="g28011"
         style="opacity:1;fill:#dd0069;fill-opacity:1">
        <path
           d="m 0,0 c 0,4.943 4.014,8.943 8.957,8.943 4.936,0 8.962,-4 8.962,-8.943 0,-4.928 -4.026,-8.947 -8.962,-8.947 C 4.014,-8.947 0,-4.928 0,0"
           style="fill:#dd0069;fill-opacity:1;fill-rule:nonzero;stroke:none"
           id="path28009" />
      </g>
      <g
         transform="translate(118.9287,1190.1171)"
         id="g28015"
         style="opacity:1;fill:#dd0069;fill-opacity:1">
        <path
           d="m 0,0 h -30.004 l -17.842,-2.727 v -15.464 l 9.004,-0.003 c -0.714,1.152 -1.147,2.499 -1.147,3.951 0,4.173 3.398,7.568 7.578,7.568 h 16.43 l 13.319,2.78 0.739,-3.532 -13.685,-2.853 h -16.803 c -2.191,0 -3.967,-1.772 -3.967,-3.961 0,-2.169 1.746,-3.923 3.914,-3.952 L 0.07,-18.196 c 5.029,0.039 9.067,4.085 9.067,9.089 C 9.139,-4.081 5.065,0.002 0,0.002 Z"
           style="fill:#dd0069;fill-opacity:1;fill-rule:nonzero;stroke:none"
           id="path28013" />
      </g>
      <g
         transform="translate(134.4553,1139.965)"
         id="g28019"
         style="opacity:1;fill:#dd0069;fill-opacity:1">
        <path
           d="m 0,0 c 20.015,0 36.241,16.203 36.241,36.188 0,19.988 -16.224,36.189 -36.241,36.189 -13.085,0 -24.519,-6.953 -30.891,-17.335 h 15.178 c 4.28,3.581 9.785,5.74 15.803,5.74 13.602,0 24.629,-11.012 24.629,-24.594 0,-13.585 -11.029,-24.597 -24.629,-24.597 -3.859,0 -7.494,0.912 -10.746,2.492 H -28.648 C -22.021,5.531 -11.669,0.002 0,0.002 Z"
           style="fill:#dd0069;fill-opacity:1;fill-rule:nonzero;stroke:none"
           id="path28017" />
      </g>
      <g
         transform="translate(147.1828,1219.5731)"
         id="g28023"
         style="opacity:1;fill:#dd0069;fill-opacity:1">
        <path
           d="m 0,0 c -0.203,-0.809 -0.927,-1.347 -1.723,-1.347 -0.144,0 -0.291,0.016 -0.434,0.057 -6.845,1.704 -14.114,1.704 -20.964,0 -0.953,-0.254 -1.918,0.34 -2.157,1.292 -0.239,0.952 0.341,1.915 1.298,2.152 C -16.568,4 -8.708,4 -1.296,2.154 -0.343,1.915 0.235,0.952 -0.002,0 Z m -12.728,12.735 c -24.799,0 -45.824,-16.083 -53.228,-38.366 l 6.911,1.074 11.215,-0.004 c 6.733,12.468 19.924,20.943 35.101,20.943 22.015,0 39.862,-17.822 39.862,-39.804 0,-21.984 -17.845,-39.803 -39.862,-39.803 -13.824,0 -25.994,7.032 -33.144,17.706 h -18.33 c 8.618,-19.857 28.416,-33.756 51.474,-33.756 30.976,0 56.09,25.072 56.09,56.005 0,30.927 -25.114,56.005 -56.09,56.005 z"
           style="fill:#dd0069;fill-opacity:1;fill-rule:nonzero;stroke:none"
           id="path28021" />
      </g>
    </g>
    <path
       d="m 36.573103,26.979263 -1.590716,3.181432 c -0.192036,0.387308 -0.748949,0.374503 -0.924983,-0.01886 L 32.236241,26.0994 31.276054,28.394305 h -3.011793 l 5.841153,5.969155 c 0.227245,0.233647 0.595319,0.233647 0.82256,0 l 5.844359,-5.969155 h -3.491889 z m 4.912974,-5.437879 -0.07682,-0.07999 c -1.648326,-1.683553 -4.346462,-1.683553 -5.997989,0 l -0.892974,0.915339 -0.892979,-0.912138 c -1.648326,-1.686754 -4.349658,-1.686754 -5.997988,0 l -0.07681,0.07679 c -1.558708,1.593918 -1.625921,4.13203 -0.233643,5.828344 h 3.277448 l 1.149023,-2.758911 c 0.172837,-0.412874 0.755351,-0.422478 0.940988,-0.01272 l 1.862771,4.138388 1.568307,-3.133414 c 0.188839,-0.37766 0.726545,-0.37766 0.915384,0 l 0.883375,1.766742 h 3.80555 C 43.111994,25.6735 43.044785,23.135388 41.486077,21.54147 Z"
       id="path83198"
       style="fill:#dd0069;fill-opacity:1;stroke-width:0.0320062" />
    <path
       d="m 9.2578458,78.872897 c -0.03478,0.30039 0.199214,0.56285 0.502781,0.56285 l 1.0213802,0.004 c 0.256135,0 0.471163,-0.18655 0.505947,-0.43954 0.02215,-0.15493 0.05692,-0.351 0.107514,-0.57237 h 9.875439 c 0.0506,0.21822 0.0917,0.41744 0.110676,0.57237 0.03478,0.25299 0.249812,0.44274 0.505947,0.43954 l 1.02138,-0.004 c 0.303567,0 0.540731,-0.26246 0.502786,-0.56285 -0.14546,-1.19845 -0.809514,-4.07923 -3.759816,-6.56783 -0.556541,0.39209 -1.173164,0.76527 -1.849865,1.11943 0.196053,0.14546 0.360488,0.29723 0.537565,0.44901 h -4.034922 c 0.673544,-0.57237 1.48622,-1.12575 2.488624,-1.62536 5.442089,-2.70361 6.441332,-6.91879 6.624737,-8.43351 0.03477,-0.30039 -0.199214,-0.56285 -0.502785,-0.56285 l -1.024542,-0.004 c -0.256131,0 -0.471163,0.18655 -0.505943,0.43954 -0.02215,0.15493 -0.05692,0.351 -0.107518,0.57232 H 11.39863 c -0.05059,-0.22132 -0.08538,-0.41423 -0.107514,-0.57232 -0.03478,-0.25299 -0.249812,-0.44269 -0.505947,-0.43954 l -1.0213762,0.004 c -0.303571,0 -0.540731,0.26246 -0.505947,0.56285 0.16443,1.35659 0.9897572,4.86661 5.0563022,7.52913 -4.063387,2.66257 -4.8918722,6.17255 -5.0563022,7.52913 z m 7.0800862,-8.68013 c -0.793704,-0.43322 -1.467244,-0.89806 -2.033274,-1.37869 h 4.063383 c -0.562864,0.48063 -1.236404,0.94862 -2.030109,1.37869 z m 4.145598,-3.90847 c -0.183405,0.32889 -0.404757,0.66722 -0.664058,1.0119 h -6.959921 c -0.262459,-0.34468 -0.483811,-0.68301 -0.664055,-1.0119 z m -8.291195,10.11894 c 0.183405,-0.32889 0.404757,-0.66722 0.664054,-1.0119 h 6.937788 c 0.262459,0.34468 0.486973,0.68301 0.670383,1.0119 z"
       id="path83285"
       style="fill:#dd0069;fill-opacity:1;stroke-width:0.0316216" />
    <path
       d="m 33.967634,81.779547 c 0,0.91561 -0.742231,1.65781 -1.657802,1.65781 -0.915577,0 -1.657807,-0.7422 -1.657807,-1.65781 0,-0.6135 0.333527,-1.14876 0.828901,-1.43543 v -4.36691 c 0,-0.45778 0.371117,-0.8289 0.828906,-0.8289 0.457783,0 0.828901,0.37112 0.828901,0.8289 v 4.36691 c 0.495374,0.28667 0.828901,0.82193 0.828901,1.43543 z m 0.828901,-2.19281 c 0.515788,0.58447 0.828906,1.35202 0.828906,2.19281 0,1.83125 -1.484334,3.31563 -3.315609,3.31563 -0.0078,0 -0.01579,0 -0.02355,0 -1.821049,-0.0127 -3.301314,-1.51174 -3.292012,-3.33282 0.0044,-0.83403 0.316612,-1.5951 0.828848,-2.17553 v -5.26734 c 0,-1.37334 1.113348,-2.48667 2.486713,-2.48667 1.37336,0 2.486703,1.11333 2.486703,2.48667 z m -0.414448,2.19281 c 0,-0.88946 -0.501746,-1.35185 -0.828901,-1.72262 v -5.73753 c 0,-0.68555 -0.557777,-1.24336 -1.243354,-1.24336 -0.685582,0 -1.243359,0.55781 -1.243359,1.24336 v 5.73753 c -0.329799,0.37375 -0.824371,0.83153 -0.828875,1.7117 -0.0058,1.13654 0.921194,2.07525 2.05731,2.08314 h 0.01491 c 1.142642,0 2.07226,-0.92959 2.07226,-2.07222 z"
       id="path83422"
       style="fill:#dd0069;fill-opacity:1;stroke-width:0.0259032" />
    <path
       d="m 30.586925,7.2564579 h -0.482157 c 0.304733,0.52483 0.482157,1.132323 0.482157,1.781651 0,1.9648251 -1.598478,3.5633471 -3.563311,3.5633471 -1.964829,0 -3.563312,-1.598522 -3.563312,-3.5633471 0,-0.649328 0.177428,-1.256821 0.482162,-1.781651 h -0.482162 c -0.654937,0 -1.187766,0.532855 -1.187766,1.187797 v 5.9388091 c 0,0.654985 0.532829,1.187796 1.187766,1.187796 h 7.126623 c 0.654942,0 1.187771,-0.532811 1.187771,-1.187796 V 8.4442549 c 0,-0.654942 -0.532829,-1.187797 -1.187771,-1.187797 z m -3.563311,4.7510991 c 1.64005,0 2.969426,-1.329353 2.969426,-2.9694481 0,-1.640051 -1.329376,-2.969404 -2.969426,-2.969404 -1.640047,0 -2.969422,1.329353 -2.969422,2.969404 0,1.6400951 1.329375,2.9694481 2.969422,2.9694481 z m -0.0056,-2.8198221 0.62321,-1.45429 c 0.06495,-0.151643 0.240151,-0.221238 0.39029,-0.156072 0.1507,0.06455 0.220483,0.239173 0.156085,0.389719 l -0.62488,1.457799 c 0.123976,0.132874 0.203222,0.308285 0.203222,0.504044 0,0.4099801 -0.332391,0.7423841 -0.742357,0.7423841 -0.409967,0 -0.742358,-0.332404 -0.742358,-0.7423841 0,-0.407919 0.329606,-0.738087 0.736788,-0.7412 z"
       id="path83495"
       style="fill:#dd0069;fill-opacity:1;stroke-width:0.0185589" />
    <path
       d="m 9.3187128,16.316972 v -3.916713 h -5.759863 c -0.383032,0 -0.691186,0.308198 -0.691186,0.691208 v 6.681456 h -1.612761 c -0.126712,0 -0.230398,0.103668 -0.230398,0.230359 v 0.460805 c 0,0.126778 0.103686,0.230403 0.230398,0.230403 h 4.057822 c 0.0864,0 0.167036,0.04903 0.207358,0.126734 l 0.573108,1.146268 1.635797,-3.274532 c 0.08352,-0.169929 0.328313,-0.169929 0.411831,0 l 0.999339,2.00153 h 2.0217102 c 0.253435,0 0.460788,0.207379 0.460788,0.460805 0,0.253469 -0.207353,0.460761 -0.460788,0.460761 H 8.5728078 l -0.636462,-1.272915 -1.635806,3.274488 c -0.08351,0.16993 -0.328308,0.16993 -0.411826,0 l -1.00222,-2.001573 h -2.01883 v 4.838279 c 0,0.383098 0.308154,0.691208 0.691186,0.691208 h 9.6765672 c 0.383032,0 0.691186,-0.30811 0.691186,-0.691208 V 17.00818 h -3.916704 c -0.3801552,0 -0.6911862,-0.311004 -0.6911862,-0.691208 z m 4.4062942,-0.892755 -2.819454,-2.822323 c -0.129598,-0.129585 -0.305272,-0.201635 -0.48959,-0.201635 h -0.17567 v 3.686354 h 3.68631 v -0.175674 c 0,-0.181419 -0.072,-0.357094 -0.201596,-0.486722 z"
       id="path83640"
       style="fill:#dd0069;fill-opacity:1;stroke-width:0.0287993" />
  </g>
  <g
     id="layer5"
     style="display:inline">
    <g
       id="g34659"
       transform="matrix(0.68780282,0,0,0.68780282,40.575837,-7.1466371)">
      <path
         id="path34655"
         style="opacity:1;fill:#e6a5c5;fill-opacity:1;stroke:#df96b3;stroke-width:2.265;stroke-linejoin:round;stroke-opacity:1;paint-order:fill markers stroke"
         d="m 87.007263,14.372709 h -59.84596 a 13.293125,64.913681 0 0 0 -1.13378,-0.266134 13.293125,64.913681 0 0 0 -13.29273,64.913867 13.293125,64.913681 0 0 0 13.125815,64.886478 v 0.32143 h 60.585966 l 5.29e-4,-0.17157 A 13.293125,64.913681 0 0 1 73.655637,79.303628 13.293125,64.913681 0 0 1 86.948883,14.390277 a 13.293125,64.913681 0 0 1 0.05839,0.0186 z" />
      <ellipse
         style="opacity:0.864097;fill:#dc0069;fill-opacity:1;stroke:#dd0069;stroke-width:2.265;stroke-linejoin:round;stroke-opacity:0.72549;paint-order:fill markers stroke"
         id="ellipse34657"
         cx="79.30378"
         cy="-86.948647"
         rx="64.913681"
         ry="13.293125"
         transform="rotate(90)" />
    </g>
    <text
       xml:space="preserve"
       style="font-size:8.46667px;line-height:1.25;font-family:Urbanist;-inkscape-font-specification:'Urbanist, Normal';font-variant-ligatures:none;letter-spacing:0px;word-spacing:0px;writing-mode:lr-tb;display:inline;fill:#dc0069;fill-opacity:0.964706;stroke-width:0.264583"
       x="52.62645"
       y="106.26442"
       id="text90179"><tspan
         id="tspan90177"
         style="font-weight:bold;font-size:8.46667px;fill:#dc0069;fill-opacity:0.964706;stroke-width:0.264583"
         x="52.62645"
         y="106.26442">Ingestion</tspan></text>
  </g>
  <g
     id="layer7"
     style="display:inline">
    <g
       id="g106405"
       transform="translate(-21.24382,-57.429451)"
       style="display:inline">
      <path
         d="M 108.8935,107.5899 H 95.983022 c -0.5093,0 -0.92218,-0.41287 -0.92218,-0.92217 v -1.84436 c 0,-0.5093 0.41288,-0.92218 0.92218,-0.92218 H 108.8935 c 0.50931,0 0.92219,0.41288 0.92219,0.92218 v 1.84436 c 0,0.5093 -0.41288,0.92217 -0.92219,0.92217 z m -1.38326,-2.53598 c -0.38199,0 -0.69163,0.30965 -0.69163,0.69163 0,0.38198 0.30964,0.69163 0.69163,0.69163 0.38198,0 0.69163,-0.30965 0.69163,-0.69163 0,-0.38198 -0.30965,-0.69163 -0.69163,-0.69163 z m -1.84436,0 c -0.38197,0 -0.69163,0.30965 -0.69163,0.69163 0,0.38198 0.30966,0.69163 0.69163,0.69163 0.38198,0 0.69164,-0.30965 0.69164,-0.69163 0,-0.38198 -0.30966,-0.69163 -0.69164,-0.69163 z m 3.22762,7.14687 H 95.983022 c -0.5093,0 -0.92218,-0.41287 -0.92218,-0.92217 v -1.84436 c 0,-0.5093 0.41288,-0.92218 0.92218,-0.92218 H 108.8935 c 0.50931,0 0.92219,0.41288 0.92219,0.92218 v 1.84436 c 0,0.5093 -0.41288,0.92217 -0.92219,0.92217 z m -1.38326,-2.53599 c -0.38199,0 -0.69163,0.30965 -0.69163,0.69164 0,0.38198 0.30964,0.69163 0.69163,0.69163 0.38198,0 0.69163,-0.30965 0.69163,-0.69163 0,-0.38199 -0.30965,-0.69164 -0.69163,-0.69164 z m -1.84436,0 c -0.38197,0 -0.69163,0.30965 -0.69163,0.69164 0,0.38198 0.30966,0.69163 0.69163,0.69163 0.38198,0 0.69164,-0.30965 0.69164,-0.69163 0,-0.38199 -0.30966,-0.69164 -0.69164,-0.69164 z m 3.22762,7.14688 H 95.983022 c -0.5093,0 -0.92218,-0.41287 -0.92218,-0.92218 v -1.84435 c 0,-0.5093 0.41288,-0.92218 0.92218,-0.92218 H 108.8935 c 0.50931,0 0.92219,0.41288 0.92219,0.92218 v 1.84435 c 0,0.50931 -0.41288,0.92218 -0.92219,0.92218 z m -1.38326,-2.53599 c -0.38199,0 -0.69163,0.30965 -0.69163,0.69164 0,0.38198 0.30964,0.69163 0.69163,0.69163 0.38198,0 0.69163,-0.30965 0.69163,-0.69163 0,-0.38199 -0.30965,-0.69164 -0.69163,-0.69164 z m -1.84436,0 c -0.38197,0 -0.69163,0.30965 -0.69163,0.69164 0,0.38198 0.30966,0.69163 0.69163,0.69163 0.38198,0 0.69164,-0.30965 0.69164,-0.69163 0,-0.38199 -0.30966,-0.69164 -0.69164,-0.69164 z"
         id="path92119"
         style="fill:#dd0069;fill-opacity:0.964706;stroke-width:0.028818" />
      <path
         d="m 80.938172,103.98014 v -2.51427 c 0,-0.41655 0.33772,-0.75428 0.75427,-0.75428 h 2.51427 c 0.41655,0 0.75428,0.33773 0.75428,0.75428 v 2.51427 c 0,0.41655 -0.33773,0.75428 -0.75428,0.75428 h -2.51427 c -0.41655,0 -0.75427,-0.33773 -0.75427,-0.75428 z m 8.79993,0.75428 h 2.51427 c 0.41655,0 0.75428,-0.33773 0.75428,-0.75428 v -2.51427 c 0,-0.41655 -0.33773,-0.75428 -0.75428,-0.75428 h -2.51427 c -0.41655,0 -0.75428,0.33773 -0.75428,0.75428 v 2.51427 c 0,0.41655 0.33773,0.75428 0.75428,0.75428 z m -4.77711,5.27996 v -2.51427 c 0,-0.41655 -0.33773,-0.75428 -0.75428,-0.75428 h -2.51427 c -0.41655,0 -0.75427,0.33773 -0.75427,0.75428 v 2.51427 c 0,0.41655 0.33772,0.75428 0.75427,0.75428 h 2.51427 c 0.41655,0 0.75428,-0.33773 0.75428,-0.75428 z m 4.77711,0.75428 h 2.51427 c 0.41655,0 0.75428,-0.33773 0.75428,-0.75428 v -2.51427 c 0,-0.41655 -0.33773,-0.75428 -0.75428,-0.75428 h -2.51427 c -0.41655,0 -0.75428,0.33773 -0.75428,0.75428 v 2.51427 c 0,0.41655 0.33773,0.75428 0.75428,0.75428 z m 11.314198,7.79423 v 2.26284 H 72.892512 v -2.26284 c 0,-0.41655 0.33773,-0.75428 0.75428,-0.75428 h 1.2257 V 93.988124 c 0,-0.730206 0.6754,-1.32219 1.50857,-1.32219 h 5.56281 v -2.514267 c 0,-0.833165 0.6754,-1.508561 1.50857,-1.508561 h 7.03994 c 0.83317,0 1.50856,0.675396 1.50856,1.508561 v 2.514267 h 5.56282 c 0.83316,0 1.50856,0.591984 1.50856,1.32219 v 23.820486 h 1.225698 c 0.41656,0 0.75428,0.33773 0.75428,0.75428 z m -23.162688,-0.81714 h 7.07138 v -4.2114 c 0,-0.41655 0.33773,-0.75428 0.75428,-0.75428 h 2.51427 c 0.41655,0 0.75428,0.33773 0.75428,0.75428 v 4.2114 h 7.07138 V 95.683055 h -4.05426 v 1.50856 c 0,0.833166 -0.67539,1.508561 -1.50856,1.508561 h -7.03994 c -0.83317,0 -1.50857,-0.675395 -1.50857,-1.508561 v -1.50856 h -4.05426 z m 11.72278,-25.079816 h -1.63428 v -1.634273 a 0.37714012,0.37714012 0 0 0 -0.37713,-0.37714 h -1.25714 a 0.37714012,0.37714012 0 0 0 -0.37714,0.37714 v 1.634273 h -1.63427 a 0.37714012,0.37714012 0 0 0 -0.37714,0.37714 v 1.257134 a 0.37714012,0.37714012 0 0 0 0.37714,0.37714 h 1.63427 v 1.634274 a 0.37714012,0.37714012 0 0 0 0.37714,0.37714 h 1.25714 a 0.37714012,0.37714012 0 0 0 0.37713,-0.37714 v -1.634274 h 1.63428 a 0.37714012,0.37714012 0 0 0 0.37714,-0.37714 v -1.257134 a 0.37714012,0.37714012 0 0 0 -0.37714,-0.37714 z"
         id="path99450"
         style="fill:#de0069;fill-opacity:0.964706;stroke-width:0.0628565" />
    </g>
  </g>
  <g
     id="g34709"
     style="display:none">
    <g
       id="g34695"
       transform="matrix(0.68780282,0,0,0.68780282,87.19358,-7.1466371)">
      <path
         id="path34691"
         style="opacity:1;fill:#e6a5c5;fill-opacity:1;stroke:#df96b3;stroke-width:2.265;stroke-linejoin:round;stroke-opacity:1;paint-order:fill markers stroke"
         d="m 87.007263,14.372709 h -59.84596 a 13.293125,64.913681 0 0 0 -1.13378,-0.266134 13.293125,64.913681 0 0 0 -13.29273,64.913867 13.293125,64.913681 0 0 0 13.125815,64.886478 v 0.32143 h 60.585966 l 5.29e-4,-0.17157 A 13.293125,64.913681 0 0 1 73.655637,79.303628 13.293125,64.913681 0 0 1 86.948883,14.390277 a 13.293125,64.913681 0 0 1 0.05839,0.0186 z" />
      <ellipse
         style="opacity:0.864097;fill:#dc0069;fill-opacity:1;stroke:#dd0069;stroke-width:2.265;stroke-linejoin:round;stroke-opacity:0.72549;paint-order:fill markers stroke"
         id="ellipse34693"
         cx="79.30378"
         cy="-86.948647"
         rx="64.913681"
         ry="13.293125"
         transform="rotate(90)" />
    </g>
    <text
       xml:space="preserve"
       style="font-size:8.46667px;line-height:1.25;font-family:Urbanist;-inkscape-font-specification:'Urbanist, Normal';font-variant-ligatures:none;letter-spacing:0px;word-spacing:0px;writing-mode:lr-tb;display:inline;fill:#dc0069;fill-opacity:0.964706;stroke-width:0.264583"
       x="94.89431"
       y="106.26442"
       id="text106413"><tspan
         id="tspan106411"
         style="font-weight:bold;font-size:8.46667px;fill:#dc0069;fill-opacity:0.964706;stroke-width:0.264583"
         x="94.89431"
         y="106.26442">Preprocessing</tspan></text>
  </g>
  <g
     id="layer8"
     style="display:none">
    <g
       id="g127847"
       transform="translate(-21.24382,-69.838694)">
      <path
         d="m 141.06031,100.43892 c -1.11531,0 -2.04038,0.76468 -2.30522,1.79793 -0.0298,0 -0.0522,-0.008 -0.0821,-0.008 -1.31674,0 -2.38728,1.07054 -2.38728,2.38727 0,0.17905 0.0223,0.35436 0.0634,0.52223 -1.08919,0.44761 -1.85387,1.51442 -1.85387,2.76028 0,0.47 0.11937,0.90643 0.3096,1.30182 -0.89523,0.51475 -1.50324,1.46967 -1.50324,2.57751 0,1.24214 0.76095,2.30896 1.84268,2.75657 -0.0336,0.17158 -0.0522,0.3469 -0.0522,0.52594 0,1.48459 1.2011,2.6857 2.68568,2.6857 0.15294,0 0.30215,-0.0187 0.44762,-0.0448 0.3581,1.06308 1.35031,1.83522 2.53649,1.83522 1.48459,0 2.68569,-1.20111 2.68569,-2.68569 v -14.02528 c 0,-1.31673 -1.07055,-2.38727 -2.38728,-2.38727 z m 13.72686,11.33958 c 0,-1.10785 -0.60801,-2.06276 -1.50324,-2.57751 0.19397,-0.3954 0.3096,-0.83182 0.3096,-1.30182 0,-1.24586 -0.76468,-2.31268 -1.85387,-2.76029 0.0373,-0.16786 0.0634,-0.34317 0.0634,-0.52222 0,-1.31673 -1.07054,-2.38727 -2.38727,-2.38727 -0.0299,0 -0.0559,0.008 -0.0821,0.008 -0.26484,-1.03325 -1.18991,-1.79792 -2.30522,-1.79792 -1.31673,0 -2.38728,1.06682 -2.38728,2.38728 v 14.02528 c 0,1.48458 1.20111,2.68568 2.68569,2.68568 1.18618,0 2.17839,-0.77213 2.53649,-1.83522 0.14547,0.0261 0.29468,0.0448 0.44761,0.0448 1.48459,0 2.6857,-1.2011 2.6857,-2.68568 0,-0.17905 -0.0187,-0.35437 -0.0523,-0.52595 1.08174,-0.44762 1.84269,-1.51444 1.84269,-2.75657 z"
         id="path108849"
         style="display:inline;fill:#dd0069;fill-opacity:0.964706;stroke-width:0.0373012" />
      <path
         d="m 124.67805,117.74707 c -0.29343,-0.46977 -0.91238,-0.61277 -1.38214,-0.31933 l -1.70147,1.06282 c -0.46976,0.29343 -0.61276,0.91237 -0.31932,1.38214 l 1.59422,2.55221 3.40294,-2.12564 z m 8.40012,-1.69907 c -0.46977,0.29344 -0.61277,0.91238 -0.31933,1.38215 0.29344,0.46977 0.91237,0.61276 1.38215,0.31932 0.46976,-0.29343 0.61276,-0.91237 0.31932,-1.38214 -0.29343,-0.46976 -0.91238,-0.61276 -1.38214,-0.31933 z m -6.27448,5.10201 -3.40294,2.12563 c -1.40957,0.88048 -1.83846,2.73687 -0.95798,4.14643 l 3.71986,5.95515 c 0.29343,0.46977 0.91237,0.61276 1.38214,0.31933 l 6.80588,-4.25126 c 0.46977,-0.29345 0.61276,-0.91238 0.31932,-1.38214 l -3.71986,-5.95515 c -0.88047,-1.40957 -2.73686,-1.83847 -4.14642,-0.95799 z m 2.54979,7.8687 c -1.17455,0.73368 -2.72168,0.37623 -3.45535,-0.79832 -0.73368,-1.17455 -0.37624,-2.72168 0.79831,-3.45536 1.17454,-0.73367 2.72168,-0.37622 3.45536,0.79832 0.73367,1.17455 0.37623,2.72169 -0.79832,3.45536 z m 3.19328,-13.82144 c 0.46976,-0.29344 0.61277,-0.91238 0.31933,-1.38215 -0.29344,-0.46976 -0.91238,-0.61276 -1.38215,-0.31932 -0.46977,0.29344 -0.61276,0.91238 -0.31933,1.38215 0.29344,0.46976 0.91238,0.61276 1.38215,0.31932 z m -2.02081,2.44497 c -0.46976,0.29343 -0.61275,0.91236 -0.31931,1.38213 0.29343,0.46976 0.91237,0.61277 1.38213,0.31934 0.46977,-0.29344 0.61278,-0.91239 0.31934,-1.38216 -0.29344,-0.46976 -0.91238,-0.61276 -1.38216,-0.31931 z m -4.14642,-0.95799 c -0.46977,0.29344 -0.61277,0.91238 -0.31933,1.38214 0.29344,0.46977 0.91238,0.61277 1.38214,0.31933 0.46977,-0.29344 0.61276,-0.91237 0.31933,-1.38214 -0.29344,-0.46976 -0.91238,-0.61277 -1.38214,-0.31933 z m 2.5522,-1.59423 c -0.46976,0.29344 -0.61276,0.91238 -0.31932,1.38215 0.29344,0.46976 0.91238,0.61276 1.38214,0.31933 0.46977,-0.29345 0.61277,-0.91239 0.31933,-1.38215 -0.29343,-0.46977 -0.91237,-0.61277 -1.38215,-0.31933 z m 5.74066,3.51019 c -0.46977,0.29345 -0.61276,0.91238 -0.31932,1.38214 0.29343,0.46977 0.91237,0.61278 1.38214,0.31934 0.46976,-0.29344 0.61277,-0.91239 0.31933,-1.38215 -0.29344,-0.46977 -0.91238,-0.61276 -1.38215,-0.31933 z"
         id="path115307"
         style="fill:#de066c;fill-opacity:1;stroke-width:0.0313458" />
    </g>
  </g>
  <g
     id="g34741"
     style="display:none">
    <g
       id="g34733"
       transform="matrix(0.68780282,0,0,0.68780282,133.81133,-7.1466371)">
      <path
         id="path34729"
         style="opacity:1;fill:#e6a5c5;fill-opacity:1;stroke:#df96b3;stroke-width:2.265;stroke-linejoin:round;stroke-opacity:1;paint-order:fill markers stroke"
         d="m 87.007263,14.372709 h -59.84596 a 13.293125,64.913681 0 0 0 -1.13378,-0.266134 13.293125,64.913681 0 0 0 -13.29273,64.913867 13.293125,64.913681 0 0 0 13.125815,64.886478 v 0.32143 h 60.585966 l 5.29e-4,-0.17157 A 13.293125,64.913681 0 0 1 73.655637,79.303628 13.293125,64.913681 0 0 1 86.948883,14.390277 a 13.293125,64.913681 0 0 1 0.05839,0.0186 z" />
      <ellipse
         style="opacity:0.864097;fill:#dc0069;fill-opacity:1;stroke:#dd0069;stroke-width:2.265;stroke-linejoin:round;stroke-opacity:0.72549;paint-order:fill markers stroke"
         id="ellipse34731"
         cx="79.30378"
         cy="-86.948647"
         rx="64.913681"
         ry="13.293125"
         transform="rotate(90)" />
    </g>
    <text
       xml:space="preserve"
       style="font-size:8.46667px;line-height:1.25;font-family:Urbanist;-inkscape-font-specification:'Urbanist, Normal';font-variant-ligatures:none;letter-spacing:0px;word-spacing:0px;writing-mode:lr-tb;display:inline;fill:#dc0069;fill-opacity:0.964706;stroke-width:0.264583"
       x="154.77505"
       y="106.26442"
       id="text127851"><tspan
         id="tspan127849"
         style="font-weight:bold;font-size:8.46667px;fill:#dc0069;fill-opacity:0.964706;stroke-width:0.264583"
         x="154.77505"
         y="106.26442">Modeling</tspan></text>
  </g>
  <g
     id="layer9"
     style="display:none">
    <path
       id="path121563"
       style="display:inline;fill:#de066c;fill-opacity:1;stroke-width:0.0690526"
       d="m 158.58773,28.710081 c -1.81212,-0.259378 -3.49163,0.999284 -3.751,2.811406 l -4.07015,28.43599 c -0.25938,1.81213 0.99933,3.49133 2.81145,3.75071 l 15.312,2.19166 c 1.81211,0.25939 3.49133,-0.99934 3.7507,-2.81145 l 4.07015,-28.435986 c 0.25935,-1.812137 -0.99933,-3.491338 -2.81144,-3.750711 z m -8.65385,4.899737 a 0.41431756,0.41431756 0 0 0 -0.46867,0.351571 l -0.0587,0.409951 -1.23044,-0.176125 a 0.41431756,0.41431756 0 0 0 -0.46896,0.351534 l -0.1174,0.820191 a 0.41431756,0.41431756 0 0 0 0.35152,0.468959 l 1.23045,0.176116 -0.0587,0.410258 a 0.41431756,0.41431756 0 0 0 0.35128,0.468616 l 2.87112,0.410959 0.46964,-3.281066 -2.87085,-0.410918 z m 28.02606,4.011474 -0.46963,3.28107 2.87112,0.410945 a 0.41431756,0.41431756 0 0 0 0.46861,-0.351265 l 0.059,-0.41021 1.23015,0.17608 a 0.41431756,0.41431756 0 0 0 0.46896,-0.35152 l 0.11739,-0.82019 a 0.41431756,0.41431756 0 0 0 -0.35152,-0.46897 l -1.23045,-0.17612 0.0587,-0.40995 a 0.41431756,0.41431756 0 0 0 -0.35122,-0.46892 z M 164.9863,36.878056 c 0.59822,0.08563 1.10584,0.408579 1.44225,0.857372 0.33616,0.450424 0.50338,1.028744 0.41811,1.624514 l -2.35353,16.442835 c -0.0856,0.59822 -0.40579,1.10625 -0.85706,1.44229 -0.45045,0.33617 -1.03849,0.50199 -1.62481,0.41806 -0.58634,-0.0839 -1.08644,-0.39612 -1.42235,-0.83081 -0.33654,-0.43479 -0.5111,-0.99434 -0.4489,-1.575 0.004,-0.0328 0.004,-0.0648 -0.005,-0.0994 -0.0348,-0.137 -0.173,-0.22236 -0.31263,-0.18813 -0.15142,0.0377 -0.30752,0.0602 -0.46864,0.0677 -0.15399,0.006 -0.31576,-8.5e-4 -0.47773,-0.024 -0.68391,-0.0979 -1.26331,-0.46337 -1.64748,-0.97592 -0.38401,-0.51231 -0.57255,-1.1707 -0.47463,-1.85482 0.0383,-0.26734 0.11624,-0.5177 0.22658,-0.74503 0.091,-0.1873 0.20729,-0.36152 0.34097,-0.51918 l 0.005,0.008 c 0.22943,0.0706 0.46734,0.12529 0.71417,0.16062 0.14065,0.0201 0.27289,-0.0787 0.29302,-0.21939 0.0201,-0.14065 -0.079,-0.27293 -0.21968,-0.29306 -1.10131,-0.15764 -2.03503,-0.74883 -2.65267,-1.57281 -0.6204,-0.82377 -0.92321,-1.88586 -0.76554,-2.98738 0.13689,-0.95637 0.5996,-1.78597 1.25963,-2.39382 0.63704,-0.58311 1.45453,-0.96053 2.33903,-1.04648 0.0537,0.0882 0.11152,0.17333 0.17318,0.25559 0.46352,0.61742 1.16127,1.05952 1.98603,1.17757 0.14043,0.0201 0.27296,-0.0792 0.29306,-0.21967 0.0201,-0.14065 -0.0792,-0.27297 -0.21967,-0.29307 -0.68413,-0.0979 -1.2635,-0.46345 -1.64751,-0.97591 -0.3842,-0.51234 -0.57221,-1.17087 -0.47433,-1.854785 0.0979,-0.68412 0.46313,-1.26325 0.97559,-1.64725 0.51234,-0.38421 1.171,-0.57251 1.85513,-0.47458 0.16193,0.0232 0.31914,0.0599 0.46492,0.1113 0.15009,0.0521 0.29642,0.11801 0.43114,0.19627 0.0259,0.0154 0.0551,0.0268 0.0848,0.0319 0.14054,0.0252 0.27203,-0.0696 0.29662,-0.20938 0.0994,-0.57972 0.42686,-1.069782 0.87403,-1.395118 0.44682,-0.322672 1.00008,-0.484087 1.5983,-0.398462 z m 6.66411,1.829076 c 0.34195,0.0489 0.6313,0.23217 0.82316,0.48788 0.19166,0.25568 0.28633,0.58502 0.23738,0.92697 -0.0489,0.34195 -0.23214,0.63132 -0.48787,0.82317 -0.2559,0.191625 -0.58503,0.286325 -0.92698,0.237375 -0.26571,-0.038 -0.50022,-0.159125 -0.68294,-0.331195 l -0.83967,0.579625 c -0.0708,0.0485 -0.14869,0.0843 -0.23194,0.10308 -0.0849,0.0184 -0.16843,0.0229 -0.256,0.0104 l -2.14353,-0.30682 0.0731,-0.510685 1.2e-4,-8.7e-4 2.14383,0.306845 c 0.023,0.003 0.044,0.003 0.0638,-9.9e-4 0.0199,-0.004 0.0368,-0.0129 0.058,-0.0266 l 0.83939,-0.57759 c -0.085,-0.20111 -0.11838,-0.42735 -0.085,-0.66045 0.049,-0.34196 0.23222,-0.63151 0.48787,-0.82318 0.25569,-0.19164 0.58532,-0.28626 0.92727,-0.23731 z m -7.32368,0.19969 c -0.13941,-0.0271 -0.2748,0.0622 -0.30437,0.20145 -0.15208,0.73224 -0.11836,1.30475 0.10071,1.71834 -0.49866,0.385125 -0.8169,0.749905 -0.95388,1.096005 -0.17995,0.44997 -0.0757,0.85438 0.30992,1.20876 0.10354,0.0951 0.26737,0.0879 0.36266,-0.0166 0.0953,-0.10373 0.088,-0.26715 -0.0166,-0.36266 -0.21277,-0.19318 -0.27141,-0.40716 -0.17963,-0.63902 0.10382,-0.26068 0.37215,-0.55715 0.80155,-0.88671 l -3.1e-4,0.002 c 0.38482,0.3122 0.96123,0.41525 1.73512,0.31199 0.14078,-0.0174 0.23974,-0.14655 0.22257,-0.28813 -0.0175,-0.14059 -0.14685,-0.239695 -0.28848,-0.22228 -0.70158,0.0929 -1.17911,-10e-4 -1.43025,-0.287045 -0.25479,-0.29107 -0.30683,-0.80057 -0.15765,-1.53153 0.027,-0.13945 -0.0622,-0.27461 -0.20147,-0.30437 z m -2.30388,1.32468 c -0.0332,-0.004 -0.0677,-0.004 -0.10223,0.006 -0.63148,0.16422 -1.01965,0.43921 -1.1597,0.824185 -0.14256,0.38462 -0.0236,0.84254 0.35253,1.37484 0.0821,0.1159 0.24271,0.14301 0.35873,0.0605 0.1157,-0.0821 0.14323,-0.24271 0.0614,-0.3586 -0.27046,-0.38329 -0.36658,-0.68386 -0.28849,-0.89903 0.0783,-0.218085 0.34692,-0.384365 0.80502,-0.505205 0.13696,-0.0346 0.22131,-0.17554 0.184,-0.3129 -0.0259,-0.10275 -0.11174,-0.17582 -0.21098,-0.19025 z m 10.45758,1.635485 c 0.34197,0.049 0.63134,0.23214 0.82318,0.48788 l -6.5e-4,0.004 c 0.19166,0.25568 0.28602,0.58498 0.23708,0.92693 -0.0489,0.34197 -0.23193,0.63186 -0.48763,0.82351 -0.25588,0.19161 -0.58502,0.28632 -0.92699,0.23736 -0.34195,-0.0489 -0.6318,-0.23223 -0.82344,-0.48791 -0.14247,-0.19006 -0.23155,-0.4225 -0.24782,-0.66981 l -0.53334,-0.0763 c -0.0257,-0.003 -0.0464,-0.004 -0.0638,9.9e-4 -0.0171,0.005 -0.037,0.014 -0.0579,0.0267 l -1.40733,0.95821 c -0.0724,0.0482 -0.14822,0.0831 -0.23142,0.10169 -0.0832,0.0187 -0.16857,0.0233 -0.25346,0.0112 l -1.75535,-0.25124 0.0731,-0.511 1.75537,0.25125 c 0.0259,0.003 0.0466,0.004 0.0636,1e-5 0.0174,-0.005 0.0373,-0.014 0.0584,-0.0266 l 1.40707,-0.95855 c 0.0726,-0.0484 0.14842,-0.083 0.23144,-0.10168 0.0832,-0.0189 0.16871,-0.0229 0.25338,-0.0108 l 0.53334,0.0763 c 0.085,-0.23282 0.23372,-0.4287 0.42577,-0.5734 0.25567,-0.19165 0.5853,-0.28628 0.92726,-0.23734 z m -23.48582,-1.695015 a 0.41431756,0.41431756 0 0 0 -0.46867,0.35156 l -0.0587,0.41026 -1.23044,-0.17613 a 0.41431756,0.41431756 0 0 0 -0.46892,0.351245 l -0.11744,0.82048 a 0.41431756,0.41431756 0 0 0 0.35156,0.46867 l 1.23044,0.17611 -0.0587,0.41025 a 0.41431756,0.41431756 0 0 0 0.35127,0.46863 l 2.87109,0.41124 0.46968,-3.281355 -2.87085,-0.41092 z m 28.02607,4.011465 -0.46968,3.28137 2.87111,0.41095 a 0.41431756,0.41431756 0 0 0 0.46867,-0.35157 l 0.059,-0.41019 1.23015,0.17607 a 0.41431756,0.41431756 0 0 0 0.46891,-0.35123 l 0.11744,-0.82048 a 0.41431756,0.41431756 0 0 0 -0.35155,-0.46868 l -1.23045,-0.17612 0.0587,-0.41025 a 0.41431756,0.41431756 0 0 0 -0.35123,-0.46891 z m -12.44685,-0.54872 c -0.0333,-7.4e-4 -0.0673,0.003 -0.10032,0.0156 l -0.005,0.004 c -0.47588,0.17772 -0.81377,0.3814 -1.01672,0.61386 -0.12092,0.13583 -0.19351,0.28096 -0.2251,0.43651 -0.0324,0.15539 -0.0146,0.31808 0.0465,0.48248 0.0895,0.23688 0.27834,0.48065 0.56256,0.73116 0.10618,0.0957 0.27084,0.0834 0.36386,-0.0229 0.0957,-0.10617 0.0831,-0.27084 -0.0235,-0.36394 -0.2197,-0.19419 -0.35898,-0.36962 -0.41742,-0.52402 -0.0268,-0.0747 -0.0334,-0.14392 -0.0218,-0.20607 0.0123,-0.0648 0.0463,-0.13111 0.10588,-0.19758 0.14641,-0.16796 0.41659,-0.32429 0.81016,-0.47068 0.13233,-0.052 0.20081,-0.1999 0.15171,-0.33199 -0.039,-0.0994 -0.13178,-0.16248 -0.23149,-0.16704 z m 2.00875,1.51146 2.1206,0.30352 c 0.14065,0.0201 0.23978,0.15264 0.21967,0.29307 -0.0201,0.14065 -0.15241,0.2395 -0.29302,0.21938 l -2.12059,-0.30352 z m 4.90803,1.7795 c 0.40449,0.0579 0.74361,0.27339 0.97151,0.57547 0.22538,0.30068 0.33772,0.68953 0.2798,1.09422 -0.0579,0.4045 -0.27361,0.74359 -0.57548,0.97152 -0.30088,0.22535 -0.68945,0.33775 -1.09394,0.27985 -0.40469,-0.0579 -0.74387,-0.27362 -0.97179,-0.57552 -0.17868,-0.23815 -0.28324,-0.52615 -0.29341,-0.83367 l -3.62162,-0.51838 0.0736,-0.51419 3.62162,0.51838 c 0.096,-0.29232 0.28002,-0.54006 0.51549,-0.71789 0.3007,-0.22559 0.68953,-0.33773 1.09422,-0.27979 z m -13.8244,-1.32604 c -0.0812,-0.0125 -0.16732,0.0148 -0.22804,0.08 l -0.004,-0.004 c -0.20932,0.22883 -0.35796,0.44284 -0.44518,0.64291 -0.085,0.19768 -0.11426,0.38433 -0.083,0.55847 0.0326,0.18125 0.12222,0.34282 0.27459,0.48285 0.1124,0.10613 0.25967,0.19823 0.44166,0.27592 0.12913,0.0574 0.28083,-0.002 0.33726,-0.13307 0.0573,-0.12894 -0.002,-0.28108 -0.13272,-0.33749 -0.12614,-0.055 -0.22541,-0.11669 -0.29673,-0.18111 -0.0663,-0.0611 -0.10419,-0.12611 -0.11571,-0.19345 -0.0127,-0.0753 0.002,-0.16482 0.0473,-0.26701 0.0637,-0.14655 0.18183,-0.31088 0.35195,-0.49656 0.0977,-0.10317 0.0905,-0.26481 -0.0137,-0.36195 -0.0388,-0.0367 -0.0857,-0.0588 -0.13455,-0.0662 z m 5.1588,1.31082 c -0.0961,-0.007 -0.18487,-0.008 -0.27292,-0.004 -0.31347,0.0137 -0.56116,0.10052 -0.74286,0.26342 -0.18866,0.16904 -0.29289,0.40185 -0.31444,0.70046 -0.005,0.0649 -0.005,0.13294 -0.002,0.20683 0.006,0.14271 0.1266,0.25188 0.26908,0.24592 0.14269,-0.006 0.25187,-0.1264 0.24591,-0.26909 l -0.002,1.3e-4 c -0.003,-0.0502 -0.002,-0.0991 0.002,-0.14585 0.0105,-0.16021 0.0582,-0.27873 0.14265,-0.35405 0.0891,-0.0791 0.23028,-0.12528 0.42195,-0.13279 0.066,-0.003 0.13702,-0.002 0.21391,0.004 0.14267,0.0103 0.26667,-0.0964 0.27734,-0.23821 0.0104,-0.14286 -0.0968,-0.26682 -0.23876,-0.27771 z m -3.55613,0.71109 c -0.0982,-0.0191 -0.20426,0.0199 -0.26297,0.10874 l -0.004,-0.004 c -0.0297,0.043 -0.0569,0.0879 -0.0828,0.13423 -0.17696,0.314 -0.22296,0.61646 -0.13625,0.90253 0.0839,0.27623 0.28631,0.52367 0.6084,0.74216 0.0585,0.039 0.12333,0.0789 0.19528,0.11981 0.12395,0.0694 0.28146,0.0262 0.35097,-0.0985 0.0694,-0.12394 0.0263,-0.28143 -0.0985,-0.35098 -0.0566,-0.0318 -0.10808,-0.0623 -0.15992,-0.0978 -0.22118,-0.14719 -0.35462,-0.30366 -0.40299,-0.46122 -0.0426,-0.14772 -0.0117,-0.31456 0.0932,-0.50249 0.0165,-0.0284 0.0367,-0.0629 0.061,-0.0971 0.081,-0.1179 0.0486,-0.27589 -0.0687,-0.35647 -0.0289,-0.02 -0.0607,-0.0336 -0.0936,-0.0398 z m 16.81253,3.12405 -0.46968,3.28137 2.87113,0.41096 a 0.41431756,0.41431756 0 0 0 0.46865,-0.35158 l 0.059,-0.4102 1.23015,0.17607 a 0.41431756,0.41431756 0 0 0 0.46891,-0.35123 l 0.1174,-0.82021 4e-5,-2.8e-4 a 0.41431756,0.41431756 0 0 0 -0.35156,-0.46868 l -1.23045,-0.17611 0.0587,-0.41024 a 0.41431756,0.41431756 0 0 0 -0.35122,-0.46891 z m -28.0261,-4.01119 a 0.41431756,0.41431756 0 0 0 -0.46863,0.35129 l -0.0587,0.41024 -1.23044,-0.17613 a 0.41431756,0.41431756 0 0 0 -0.46896,0.35152 l -0.1174,0.82022 a 0.41431756,0.41431756 0 0 0 0.35156,0.46866 l 1.23045,0.17611 -0.0587,0.41025 a 0.41431756,0.41431756 0 0 0 0.35123,0.46892 l 2.87112,0.41096 0.46964,-3.28108 -2.87084,-0.41091 z m 17.88065,2.92939 2.1206,0.30354 c 0.14064,0.0201 0.23984,0.15211 0.21972,0.29274 -0.0201,0.14044 -0.15243,0.23981 -0.29307,0.21968 l -2.12059,-0.30353 z m -1.80119,0.003 c -0.0817,-0.0137 -0.16858,0.0132 -0.22926,0.0783 -0.3441,0.36352 -0.55003,0.74418 -0.61826,1.14197 -0.62202,0.11139 -1.11708,0.31154 -1.48578,0.5956 -0.42439,0.33111 -0.67782,0.76631 -0.75998,1.30833 -0.0221,0.14016 0.0747,0.27231 0.21531,0.29244 0.14033,0.0221 0.27206,-0.0749 0.29215,-0.21534 0.0631,-0.40564 0.25053,-0.73056 0.56647,-0.97489 0.28142,-0.21935 0.66739,-0.37862 1.15759,-0.47812 l 0.004,-0.002 c 0.0446,0.36079 0.20046,0.72673 0.46052,1.09638 0.0821,0.11767 0.24262,0.14526 0.35839,0.0628 0.11764,-0.0818 0.14498,-0.24247 0.0629,-0.35838 -0.27287,-0.3855 -0.39963,-0.75263 -0.37815,-1.09852 0.0215,-0.34588 0.18716,-0.68536 0.50176,-1.01731 0.0971,-0.10432 0.0925,-0.2677 -0.0118,-0.36463 -0.039,-0.0365 -0.0863,-0.0585 -0.13533,-0.0666 z m 1.55855,1.69266 1.75536,0.25125 c 0.0857,0.0123 0.16684,0.0404 0.24047,0.0815 0.0745,0.0417 0.13943,0.0954 0.19362,0.16249 l 1.08203,1.31454 c 0.0165,0.0191 0.0303,0.0325 0.0482,0.0421 0.015,0.01 0.0354,0.0152 0.061,0.0185 l 0.53335,0.0763 c 0.0849,-0.23284 0.23344,-0.42855 0.42576,-0.57341 0.25567,-0.19164 0.5848,-0.28634 0.92696,-0.23736 0.34196,0.049 0.63151,0.23222 0.82317,0.48787 0.19166,0.25568 0.28633,0.58503 0.23738,0.92698 -0.0489,0.34195 -0.23222,0.6315 -0.48788,0.82316 -0.25568,0.19165 -0.58502,0.28633 -0.92698,0.23738 -0.34218,-0.0489 -0.6315,-0.23221 -0.82315,-0.48788 -0.14248,-0.19007 -0.23177,-0.42245 -0.24786,-0.66953 l -0.53335,-0.0763 c -0.0857,-0.0123 -0.16656,-0.0404 -0.24018,-0.0815 -0.0744,-0.0416 -0.13943,-0.0953 -0.19364,-0.16249 l -1.08196,-1.31482 c -0.0166,-0.0189 -0.0303,-0.0324 -0.0482,-0.0418 -0.0149,-0.01 -0.0359,-0.0143 -0.0615,-0.0176 l -1.75537,-0.25126 z m -6.22231,0.47021 c -0.0995,-0.0134 -0.20209,0.0328 -0.25599,0.12424 l 9.5e-4,-4.7e-4 c -0.35479,0.60175 -0.47577,1.08625 -0.36234,1.46125 0.12239,0.40938 0.48796,0.65504 1.0962,0.73941 0.14085,0.0172 0.27003,-0.0794 0.29016,-0.22009 0.0171,-0.14107 -0.0792,-0.26998 -0.21981,-0.29011 -0.38828,-0.0556 -0.61272,-0.17971 -0.67187,-0.37737 -0.0713,-0.22966 0.0333,-0.58188 0.31046,-1.05121 0.0716,-0.12198 0.0301,-0.28084 -0.0911,-0.3526 -0.0307,-0.0175 -0.0633,-0.0292 -0.0968,-0.0327 z m 5.83291,2.25022 -3e-4,0.002 2.14122,0.30648 c 0.0873,0.0125 0.16808,0.041 0.24272,0.0822 0.0671,0.0374 0.12667,0.0861 0.1791,0.14801 0.007,0.005 0.0171,0.016 0.0171,0.016 l 0.64335,0.79191 c 0.22097,-0.1144 0.48006,-0.16477 0.74842,-0.12635 0.34196,0.049 0.63154,0.2319 0.8232,0.48759 0.19183,0.25591 0.28629,0.58531 0.23734,0.92727 -0.0489,0.34195 -0.23201,0.63153 -0.48788,0.82316 -0.25569,0.19165 -0.58501,0.28632 -0.92697,0.23738 -0.34196,-0.049 -0.6318,-0.23224 -0.82346,-0.48792 -0.19165,-0.25568 -0.28633,-0.58502 -0.23738,-0.92697 0.033,-0.23042 0.1296,-0.4408 0.2663,-0.61024 l -0.64307,-0.79187 -0.008,-0.01 c -0.012,-0.0138 -0.0249,-0.0231 -0.0401,-0.0321 -0.0156,-0.009 -0.0356,-0.0142 -0.0615,-0.0176 l -2.14354,-0.3068 0.0729,-0.50924 -0.003,-4.7e-4 z m -1.26906,0.29863 c -0.51905,-0.0834 -0.95923,-0.0219 -1.31863,0.18546 -0.3626,0.21067 -0.63348,0.55855 -0.81169,1.04644 -0.0499,0.13449 0.0182,0.2808 0.15268,0.33058 0.13467,0.05 0.28111,-0.0185 0.33091,-0.15292 l 0.003,10e-4 c 0.13632,-0.37256 0.33051,-0.62992 0.58526,-0.77693 0.25623,-0.14722 0.58301,-0.18794 0.97891,-0.12417 0.14147,0.0202 0.27492,-0.0742 0.29502,-0.21465 0.0202,-0.14146 -0.0743,-0.27492 -0.21495,-0.29505 z m -16.91882,-1.08156 a 0.41431756,0.41431756 0 0 0 -0.46862,0.35128 l -0.0587,0.41024 -1.23044,-0.17612 a 0.41431756,0.41431756 0 0 0 -0.46896,0.35152 l -0.1174,0.8202 a 0.41431756,0.41431756 0 0 0 0.35152,0.46896 l 1.23044,0.17612 -0.0587,0.40995 a 0.41431756,0.41431756 0 0 0 0.35124,0.46892 l 2.87112,0.41095 0.46963,-3.28107 -2.87084,-0.41091 z m 28.02606,4.01147 -0.46963,3.28107 2.87112,0.41095 a 0.41431756,0.41431756 0 0 0 0.46866,-0.35156 l 0.059,-0.40991 1.23014,0.17608 a 0.41431756,0.41431756 0 0 0 0.46895,-0.35153 l 0.11741,-0.8202 a 0.41431756,0.41431756 0 0 0 -0.35152,-0.46896 l -1.23045,-0.17611 0.0587,-0.41024 a 0.41431756,0.41431756 0 0 0 -0.35127,-0.46864 z" />
  </g>
  <g
     id="g34773"
     style="display:none">
    <g
       id="g34771"
       transform="matrix(0.68780282,0,0,0.68780282,180.42907,-7.1466371)">
      <path
         id="path34767"
         style="opacity:1;fill:#e6a5c5;fill-opacity:1;stroke:#df96b3;stroke-width:2.265;stroke-linejoin:round;stroke-opacity:1;paint-order:fill markers stroke"
         d="m 87.007263,14.372709 h -59.84596 a 13.293125,64.913681 0 0 0 -1.13378,-0.266134 13.293125,64.913681 0 0 0 -13.29273,64.913867 13.293125,64.913681 0 0 0 13.125815,64.886478 v 0.32143 h 60.585966 l 5.29e-4,-0.17157 A 13.293125,64.913681 0 0 1 73.655637,79.303628 13.293125,64.913681 0 0 1 86.948883,14.390277 a 13.293125,64.913681 0 0 1 0.05839,0.0186 z" />
      <ellipse
         style="opacity:0.864097;fill:#dc0069;fill-opacity:1;stroke:#dd0069;stroke-width:2.265;stroke-linejoin:round;stroke-opacity:0.72549;paint-order:fill markers stroke"
         id="ellipse34769"
         cx="79.30378"
         cy="-86.948647"
         rx="64.913681"
         ry="13.293125"
         transform="rotate(90)" />
    </g>
    <text
       xml:space="preserve"
       style="font-size:8.46667px;line-height:1.25;font-family:Urbanist;-inkscape-font-specification:'Urbanist, Normal';font-variant-ligatures:none;letter-spacing:0px;word-spacing:0px;writing-mode:lr-tb;display:inline;fill:#dc0069;fill-opacity:0.964706;stroke-width:0.264583"
       x="207.3385"
       y="106.26442"
       id="text132775"><tspan
         id="tspan132773"
         style="font-weight:bold;font-size:8.46667px;fill:#dc0069;fill-opacity:0.964706;stroke-width:0.264583"
         x="207.3385"
         y="106.26442">Use</tspan></text>
  </g>
  <g
     id="layer10"
     style="display:none">
    <path
       d="m 209.19291,22.904701 c 2.82328,0 5.11146,-2.288176 5.11146,-5.111457 0,-2.823281 -2.28818,-5.111456 -5.11146,-5.111456 -2.82328,0 -5.11145,2.288175 -5.11145,5.111456 0,2.823281 2.28817,5.111457 5.11145,5.111457 z m 3.57802,1.27786 h -0.66688 c -0.88652,0.407319 -1.87287,0.638939 -2.91114,0.638939 -1.03826,0 -2.02062,-0.23162 -2.91113,-0.638939 h -0.66689 c -2.96304,0 -5.36703,2.403989 -5.36703,5.367029 v 1.66122 c 0,1.05823 0.85857,1.9168 1.9168,1.9168 h 14.0565 c 1.05823,0 1.9168,-0.85857 1.9168,-1.9168 v -1.66122 c 0,-2.96304 -2.40398,-5.367029 -5.36703,-5.367029 z"
       id="path143081"
       style="display:inline;fill:#de066c;fill-opacity:1;stroke-width:0.0399332" />
    <path
       d="m 221.90055,21.112565 1.05847,1.060375 c 0.0589,0.05891 0.0589,0.155827 0,0.214732 l -0.21474,0.214736 c -0.0589,0.05891 -0.15582,0.05891 -0.21473,0 l -1.05848,-1.060371 -0.86084,0.86084 1.06038,1.060375 c 0.0589,0.05891 0.0589,0.155822 0,0.214736 l -0.21474,0.214735 c -0.0589,0.05891 -0.15582,0.05891 -0.21473,0 l -1.06038,-1.062276 -0.50168,0.501683 c -0.32876,0.328756 -0.48649,0.78103 -0.43707,1.242804 l 0.13492,1.208599 -1.26181,1.261808 c -0.0589,0.05891 -0.0589,0.155827 0,0.214736 l 0.21474,0.214735 c 0.0589,0.05891 0.15582,0.05891 0.21473,0 l 1.25991,-1.259906 1.2086,0.134921 c 0.45417,0.04941 0.91025,-0.102618 1.2428,-0.437073 l 3.45667,-3.456668 -2.57873,-2.578726 z m 5.85676,-1.772991 -1.50505,-1.505051 c -0.0589,-0.05891 -0.15582,-0.05891 -0.21473,0 l -0.21474,0.214735 c -0.0589,0.05891 -0.0589,0.155827 0,0.214736 l 0.53779,0.53779 -0.86084,0.860841 -1.07558,-1.075577 -0.32306,-0.323054 c -0.0589,-0.05891 -0.15582,-0.05891 -0.21473,0 l -0.64421,0.644203 c -0.0589,0.05891 -0.0589,0.155827 0,0.214736 l 0.32306,0.323058 2.57872,2.582525 0.32306,0.323054 c 0.0589,0.05891 0.15582,0.05891 0.21473,0 l 0.64421,-0.646108 c 0.0589,-0.05891 0.0589,-0.155827 0,-0.214732 l -1.39673,-1.396733 0.86084,-0.860844 0.53779,0.53779 c 0.0589,0.05891 0.15582,0.05891 0.21473,0 l 0.21474,-0.214736 c 0.0589,-0.06081 0.0589,-0.155826 0,-0.216633 z"
       id="path137001"
       style="display:inline;fill:#de066c;fill-opacity:1;stroke-width:0.0190031" />
    <path
       d="m 199.88207,46.297407 c 1.03214,0 1.87131,0.83917 1.87131,1.87131 0,1.03215 -0.83917,1.87132 -1.87131,1.87132 -1.03215,0 -1.87131,-0.83917 -1.87131,-1.87132 0,-1.03214 0.83916,-1.87131 1.87131,-1.87131 z m 2.80696,9.12264 c 0,0.73099 -0.37133,1.37425 -0.93565,1.75143 v 2.69294 c 0,0.77484 -0.62865,1.40348 -1.40349,1.40348 h -0.93565 c -0.77484,0 -1.40348,-0.62864 -1.40348,-1.40348 v -2.69294 c -0.56432,-0.37718 -0.93566,-1.02044 -0.93566,-1.75143 v -1.16956 c 0,-1.54968 1.25729,-2.80697 2.80697,-2.80697 1.54968,0 2.80696,1.25729 2.80696,2.80697 z m -7.48524,-8.18698 c 0.90349,0 1.6374,0.7339 1.6374,1.6374 0,0.90349 -0.73391,1.63739 -1.6374,1.63739 -0.90349,0 -1.6374,-0.7339 -1.6374,-1.63739 0,-0.9035 0.73391,-1.6374 1.6374,-1.6374 z m 0.46783,7.01742 v 0.93565 c 0,0.95028 0.35379,1.81576 0.93565,2.47656 v 2.20172 c 0,0.0351 0,0.0731 0.003,0.10818 -0.24853,0.22222 -0.57601,0.35964 -0.93858,0.35964 h -0.93565 c -0.77484,0 -1.40349,-0.62864 -1.40349,-1.40348 v -1.65494 c -0.55846,-0.32163 -0.93565,-0.92688 -0.93565,-1.61985 v -0.93566 c 0,-1.54968 1.25729,-2.80696 2.80696,-2.80696 0.37134,0 0.72514,0.0731 1.04969,0.20175 -0.36841,0.62572 -0.58186,1.3567 -0.58186,2.13739 z m 7.48524,5.61393 v -2.20172 c 0.58186,-0.65788 0.93566,-1.52628 0.93566,-2.47656 v -0.93565 c 0,-0.78069 -0.21345,-1.50875 -0.58186,-2.13739 0.32455,-0.13158 0.67835,-0.20175 1.04968,-0.20175 1.54968,0 2.80697,1.25728 2.80697,2.80696 v 0.93566 c 0,0.69297 -0.37719,1.29822 -0.93566,1.61985 v 1.65494 c 0,0.77484 -0.62864,1.40348 -1.40348,1.40348 h -0.93565 c -0.35965,0 -0.69005,-0.1345 -0.93858,-0.35964 0,-0.0351 0.003,-0.0731 0.003,-0.10818 z m 1.40348,-12.63135 c 0.9035,0 1.6374,0.7339 1.6374,1.6374 0,0.90349 -0.7339,1.63739 -1.6374,1.63739 -0.90349,0 -1.63739,-0.7339 -1.63739,-1.63739 0,-0.9035 0.7339,-1.6374 1.63739,-1.6374 z"
       id="path146808"
       style="fill:#de066c;fill-opacity:1;stroke-width:0.0292392" />
    <path
       d="m 206.33789,67.323907 c 1.03214,0 1.87131,0.83917 1.87131,1.87131 0,1.03215 -0.83917,1.87132 -1.87131,1.87132 -1.03215,0 -1.87131,-0.83917 -1.87131,-1.87132 0,-1.03214 0.83916,-1.87131 1.87131,-1.87131 z m 2.80696,9.12264 c 0,0.73099 -0.37133,1.37425 -0.93565,1.75143 v 2.69294 c 0,0.77484 -0.62865,1.40348 -1.40349,1.40348 h -0.93565 c -0.77484,0 -1.40348,-0.62864 -1.40348,-1.40348 v -2.69294 c -0.56432,-0.37718 -0.93566,-1.02044 -0.93566,-1.75143 v -1.16956 c 0,-1.54968 1.25729,-2.80697 2.80697,-2.80697 1.54968,0 2.80696,1.25729 2.80696,2.80697 z m -7.48524,-8.18698 c 0.90349,0 1.6374,0.7339 1.6374,1.6374 0,0.90349 -0.73391,1.63739 -1.6374,1.63739 -0.90349,0 -1.6374,-0.7339 -1.6374,-1.63739 0,-0.9035 0.73391,-1.6374 1.6374,-1.6374 z m 0.46783,7.01742 v 0.93565 c 0,0.95028 0.35379,1.81576 0.93565,2.47656 v 2.20172 c 0,0.0351 0,0.0731 0.003,0.10818 -0.24853,0.22222 -0.57601,0.35964 -0.93858,0.35964 h -0.93565 c -0.77484,0 -1.40349,-0.62864 -1.40349,-1.40348 v -1.65494 c -0.55846,-0.32163 -0.93565,-0.92688 -0.93565,-1.61985 v -0.93566 c 0,-1.54968 1.25729,-2.80696 2.80696,-2.80696 0.37134,0 0.72514,0.0731 1.04969,0.20175 -0.36841,0.62572 -0.58186,1.3567 -0.58186,2.13739 z m 7.48524,5.61393 v -2.20172 c 0.58186,-0.65788 0.93566,-1.52628 0.93566,-2.47656 v -0.93565 c 0,-0.78069 -0.21345,-1.50875 -0.58186,-2.13739 0.32455,-0.13158 0.67835,-0.20175 1.04968,-0.20175 1.54968,0 2.80697,1.25728 2.80697,2.80696 v 0.93566 c 0,0.69297 -0.37719,1.29822 -0.93566,1.61985 v 1.65494 c 0,0.77484 -0.62864,1.40348 -1.40348,1.40348 h -0.93565 c -0.35965,0 -0.69005,-0.1345 -0.93858,-0.35964 0,-0.0351 0.003,-0.0731 0.003,-0.10818 z m 1.40348,-12.63135 c 0.9035,0 1.6374,0.7339 1.6374,1.6374 0,0.90349 -0.7339,1.63739 -1.6374,1.63739 -0.90349,0 -1.63739,-0.7339 -1.63739,-1.63739 0,-0.9035 0.7339,-1.6374 1.63739,-1.6374 z"
       id="path150485"
       style="fill:#de066c;fill-opacity:1;stroke-width:0.0292392" />
    <path
       d="m 220.58714,52.663277 c 1.03214,0 1.87131,0.83917 1.87131,1.87131 0,1.03215 -0.83917,1.87132 -1.87131,1.87132 -1.03215,0 -1.87131,-0.83917 -1.87131,-1.87132 0,-1.03214 0.83916,-1.87131 1.87131,-1.87131 z m 2.80696,9.12264 c 0,0.73099 -0.37133,1.37425 -0.93565,1.75143 v 2.69294 c 0,0.77484 -0.62865,1.40348 -1.40349,1.40348 h -0.93565 c -0.77484,0 -1.40348,-0.62864 -1.40348,-1.40348 v -2.69294 c -0.56432,-0.37718 -0.93566,-1.02044 -0.93566,-1.75143 v -1.16956 c 0,-1.54968 1.25729,-2.80697 2.80697,-2.80697 1.54968,0 2.80696,1.25729 2.80696,2.80697 z m -7.48524,-8.18698 c 0.90349,0 1.6374,0.7339 1.6374,1.6374 0,0.90349 -0.73391,1.63739 -1.6374,1.63739 -0.90349,0 -1.6374,-0.7339 -1.6374,-1.63739 0,-0.9035 0.73391,-1.6374 1.6374,-1.6374 z m 0.46783,7.01742 v 0.93565 c 0,0.95028 0.35379,1.81576 0.93565,2.47656 v 2.20172 c 0,0.0351 0,0.0731 0.003,0.10818 -0.24853,0.22222 -0.57601,0.35964 -0.93858,0.35964 h -0.93565 c -0.77484,0 -1.40349,-0.62864 -1.40349,-1.40348 v -1.65494 c -0.55846,-0.32163 -0.93565,-0.92688 -0.93565,-1.61985 v -0.93566 c 0,-1.54968 1.25729,-2.80696 2.80696,-2.80696 0.37134,0 0.72514,0.0731 1.04969,0.20175 -0.36841,0.62572 -0.58186,1.3567 -0.58186,2.13739 z m 7.48524,5.61393 v -2.20172 c 0.58186,-0.65788 0.93566,-1.52628 0.93566,-2.47656 v -0.93565 c 0,-0.78069 -0.21345,-1.50875 -0.58186,-2.13739 0.32455,-0.13158 0.67835,-0.20175 1.04968,-0.20175 1.54968,0 2.80697,1.25728 2.80697,2.80696 v 0.93566 c 0,0.69297 -0.37719,1.29822 -0.93566,1.61985 v 1.65494 c 0,0.77484 -0.62864,1.40348 -1.40348,1.40348 h -0.93565 c -0.35965,0 -0.69005,-0.1345 -0.93858,-0.35964 0,-0.0351 0.003,-0.0731 0.003,-0.10818 z m 1.40348,-12.63135 c 0.9035,0 1.6374,0.7339 1.6374,1.6374 0,0.90349 -0.7339,1.63739 -1.6374,1.63739 -0.90349,0 -1.63739,-0.7339 -1.63739,-1.63739 0,-0.9035 0.7339,-1.6374 1.63739,-1.6374 z"
       id="path150487"
       style="fill:#de066c;fill-opacity:1;stroke-width:0.0292392" />
  </g>
</svg>
